<svg viewBox="0 0 500 500" preserveAspectRatio="xMidYMid meet" version="1.1" xmlns="http://www.w3.org/2000/svg"
     xmlns:xlink="http://www.w3.org/1999/xlink">
    <g stroke="none" stroke-width="1" fill-rule="evenodd" transform="rotate(130 250 270)">
        <path d="M360.997746,94.3020324 C395.550048,120.303866 421.548685,155.986035 441.357171,195.495315 C461.053109,235.229718 474.558894,278.678669 470.169514,320.776876 C465.780134,362.76252 443.495587,403.284858 409.731123,423.546027 C376.079206,443.807196 330.947372,443.919758 290.317467,453.149846 C249.687561,462.492496 213.334488,481.065234 174.392805,481.965731 C135.451123,482.866227 93.8082837,465.98192 67.0218086,435.81529 C40.2353334,405.648661 28.1926745,362.19971 30.2185423,321.677372 C32.131862,281.155034 48.0011603,243.671872 65.67123,208.102264 C83.4538479,172.420095 103.262334,138.65148 132.637418,110.285843 C161.899954,81.8076449 200.954184,58.8449869 241.921734,55.4681254 C283.114381,51.9787019 326.332895,68.300199 360.997746,94.3020324"></path>
    </g>
</svg>
