<svg viewBox="0 0 22 24" version="1.1" xmlns="http://www.w3.org/2000/svg" xmlns:xlink="http://www.w3.org/1999/xlink">
    <title>Shape Copy</title>
    <g stroke="none" stroke-width="1" fill="none" fill-rule="evenodd">
        <g id="Group-Copy" transform="translate(-637.000000, -616.000000)" fill="#FFFFFF" fill-rule="nonzero">
            <g id="Group-38" transform="translate(539.000000, 125.000000)">
                <g id="Group-3-Copy-14" transform="translate(81.000000, 475.000000)">
                    <path fill="#ffffff" d="M33.0206783,16.5454545 C30.2713289,17.4062364 28.1285733,18.2681091 28.4341644,22 C31.1835139,21.4257727 33.6318606,19.9907636 33.0206783,16.5454545 Z M24.2888312,21.7272727 C21.6417473,21.7272727 17.8181818,23.9090909 17.8181818,28 C17.8181818,33.7272727 21.9358678,39.4545455 24.2888312,39.4545455 C26.0535537,39.4545455 27.5241558,38.3636364 28.7006375,38.3636364 C29.8771192,38.3636364 31.0536009,39.4545455 32.8183235,39.4545455 C35.1712869,39.4545455 37.8183707,36.1818182 38.4066116,33.1818182 C36.3477686,31.8181818 34.8771665,31 34.8771665,28.5454545 C34.8771665,26.9090909 36.3477686,25.2727273 38.1124911,23.9090909 C37.2301299,22.8181818 35.4654073,21.7272727 33.7006848,21.7272727 C31.9359622,21.7272727 30.0380031,23.0216636 28.7006375,23.0909091 C27.5241558,23.0909091 26.0535537,21.7272727 24.2888312,21.7272727 Z" id="Shape-Copy"></path>
                </g>
            </g>
        </g>
    </g>
</svg>
