<svg width="250" height="74" viewBox="0 0 250 74" fill="none" xmlns="http://www.w3.org/2000/svg">
    <path d="M231.821 3.18307e-06L17.6887 3.21866e-06C17.0084 3.21866e-06 16.3362 3.1651e-06 15.6577 0.00370318C15.0898 0.00740319 14.5263 0.0181517 13.9529 0.0271983C12.7072 0.0418166 11.4644 0.151105 10.2353 0.354113C9.00794 0.56154 7.81903 0.9526 6.70879 1.51407C5.5999 2.08028 4.58668 2.81602 3.70588 3.69459C2.82046 4.5707 2.08239 5.58335 1.52005 6.69362C0.956167 7.80168 0.565167 8.98907 0.360557 10.2148C0.154001 11.4389 0.042852 12.6772 0.0281062 13.9185C0.01089 14.4857 0.0090719 15.0548 0 15.6221V58.3836C0.0090719 58.958 0.01089 59.5145 0.0281062 60.0891C0.0428565 61.3303 0.154006 62.5686 0.360557 63.7926C0.564602 65.0191 0.955625 66.2071 1.52005 67.3156C2.08213 68.4223 2.8203 69.4308 3.70588 70.3021C4.58334 71.1846 5.59722 71.9208 6.70879 72.4827C7.81902 73.0456 9.0078 73.439 10.2353 73.6497C11.4646 73.8511 12.7073 73.9604 13.9529 73.9767C14.5263 73.9893 15.0898 73.9965 15.6577 73.9965C16.3362 74.0002 17.0084 74.0002 17.6887 74.0002H231.821C232.488 74.0002 233.166 74.0002 233.832 73.9965C234.398 73.9965 234.977 73.9893 235.543 73.9767C236.786 73.9613 238.026 73.8519 239.253 73.6497C240.484 73.4376 241.678 73.0443 242.793 72.4827C243.904 71.9205 244.917 71.1842 245.793 70.3021C246.677 69.4274 247.416 68.4196 247.985 67.3156C248.546 66.2063 248.933 65.0184 249.134 63.7926C249.341 62.5684 249.456 61.3304 249.478 60.0891C249.486 59.5145 249.486 58.958 249.486 58.3836C249.5 57.7115 249.5 57.0431 249.5 56.3601V17.6419C249.5 16.9644 249.5 16.2923 249.486 15.6221C249.486 15.0548 249.486 14.4857 249.478 13.9184C249.456 12.677 249.341 11.439 249.134 10.2147C248.932 8.9897 248.545 7.80241 247.985 6.69355C246.84 4.46813 245.024 2.65666 242.793 1.5139C241.678 0.953806 240.484 0.56285 239.253 0.353946C238.027 0.150044 236.786 0.0407177 235.543 0.0269393C234.977 0.0179112 234.398 0.00707021 233.832 0.00346269C233.166 -0.000237318 232.488 3.18307e-06 231.821 3.18307e-06Z" fill="#A6A6A6"/>
    <path d="M16.0472 72.3811C15.482 72.3811 14.9304 72.3739 14.3696 72.3613C13.2078 72.3462 12.0488 72.2454 10.9019 72.0596C9.83259 71.8759 8.79668 71.5343 7.82837 71.046C6.86894 70.5617 5.99386 69.9267 5.23666 69.1653C4.4685 68.4128 3.82897 67.5401 3.34342 66.5817C2.85252 65.6171 2.51278 64.5833 2.33605 63.516C2.1452 62.3693 2.04194 61.2097 2.02716 60.0473C2.0154 59.6571 2 58.3581 2 58.3581V15.6219C2 15.6219 2.0164 14.3428 2.02725 13.967C2.0414 12.8065 2.14406 11.6487 2.33434 10.5037C2.5114 9.4335 2.8514 8.39655 3.34257 7.42878C3.82634 6.47106 4.46231 5.59772 5.22585 4.84258C5.98852 4.08027 6.8664 3.44199 7.82746 2.95101C8.79354 2.46424 9.8275 2.12502 10.8947 1.94472C12.0453 1.75706 13.2083 1.65561 14.3741 1.6412L16.0481 1.61862L233.443 1.61498L235.137 1.63848C236.292 1.65217 237.444 1.75271 238.585 1.93927C239.662 2.12184 240.707 2.46342 241.684 2.95279C243.61 3.94226 245.176 5.50768 246.165 7.42966C246.648 8.39075 246.983 9.41922 247.158 10.4802C247.35 11.6346 247.458 12.8014 247.48 13.9715C247.485 14.4954 247.485 15.0582 247.485 15.6183C247.5 16.312 247.5 16.9723 247.5 17.6381V56.3561C247.5 57.0282 247.5 57.684 247.485 58.3452C247.485 58.9469 247.485 59.498 247.478 60.0652C247.456 61.2144 247.351 62.3604 247.161 63.4942C246.988 64.5691 246.65 65.6111 246.159 66.5836C245.67 67.5316 245.034 68.3968 244.275 69.1472C243.517 69.9127 242.641 70.5514 241.679 71.0388C240.705 71.5309 239.661 71.8738 238.585 72.056C237.438 72.2427 236.279 72.3436 235.117 72.3577C234.573 72.3703 234.004 72.3775 233.452 72.3775L231.441 72.3812L16.0472 72.3811Z" fill="black"/>
    <path d="M166.093 34.2117V38.5053H163.382V41.321H166.093V50.8883C166.093 54.1552 167.582 55.462 171.327 55.462C171.986 55.462 172.613 55.3842 173.161 55.2908V52.5062C172.691 52.5529 172.393 52.584 171.876 52.584C170.199 52.584 169.463 51.8062 169.463 50.0327V41.321H173.161V38.5053H169.463V34.2117H166.093Z" fill="white"/>
    <path d="M182.703 55.6953C187.686 55.6953 190.742 52.3818 190.742 46.8903C190.742 41.4299 187.671 38.1008 182.703 38.1008C177.719 38.1008 174.647 41.4299 174.647 46.8903C174.647 52.3818 177.703 55.6953 182.703 55.6953ZM182.703 52.724C179.772 52.724 178.126 50.5928 178.126 46.8903C178.126 43.2189 179.772 41.0721 182.703 41.0721C185.618 41.0721 187.279 43.2189 187.279 46.8903C187.279 50.5772 185.618 52.724 182.703 52.724Z" fill="white"/>
    <path d="M193.357 55.3686H196.726V45.3658C196.726 42.9856 198.529 41.3833 201.083 41.3833C201.679 41.3833 202.682 41.4922 202.964 41.5855V38.2875C202.603 38.1942 201.961 38.1475 201.459 38.1475C199.234 38.1475 197.338 39.3609 196.852 41.0255H196.601V38.4275H193.357V55.3686Z" fill="white"/>
    <path d="M211.33 40.9477C213.822 40.9477 215.452 42.6745 215.53 45.3346H206.911C207.099 42.69 208.838 40.9477 211.33 40.9477ZM215.514 50.795C214.887 52.1173 213.493 52.8485 211.455 52.8485C208.76 52.8485 207.02 50.9661 206.911 47.9948V47.8081H218.962V46.6414C218.962 41.321 216.094 38.1008 211.346 38.1008C206.534 38.1008 203.478 41.5388 203.478 46.9525C203.478 52.3662 206.472 55.6953 211.361 55.6953C215.264 55.6953 217.99 53.8285 218.758 50.795H215.514Z" fill="white"/>
    <path d="M143.997 49.1125C144.257 53.2725 147.749 55.9329 152.947 55.9329C158.502 55.9329 161.978 53.1435 161.978 48.6933C161.978 45.1944 159.997 43.2596 155.188 42.147L152.606 41.5182C149.552 40.8087 148.318 39.8574 148.318 38.1967C148.318 36.1005 150.234 34.73 153.109 34.73C155.838 34.73 157.722 36.0683 158.064 38.2128H161.605C161.393 34.2947 157.917 31.5375 153.158 31.5375C148.041 31.5375 144.63 34.2947 144.63 38.4385C144.63 41.8568 146.563 43.8884 150.803 44.8719L153.824 45.5975C156.927 46.3231 158.291 47.3873 158.291 49.1609C158.291 51.2248 156.147 52.7243 153.223 52.7243C150.088 52.7243 147.911 51.3215 147.603 49.1125H143.997Z" fill="white"/>
    <path d="M109.093 38.1475C106.774 38.1475 104.768 39.2987 103.733 41.2277H103.482V38.4275H100.238V61.0001H103.608V52.8018H103.874C104.768 54.5908 106.695 55.6486 109.124 55.6486C113.434 55.6486 116.177 52.2729 116.177 46.8903C116.177 41.5077 113.434 38.1475 109.093 38.1475ZM108.137 52.6462C105.316 52.6462 103.545 50.4372 103.545 46.9058C103.545 43.359 105.316 41.1499 108.153 41.1499C111.005 41.1499 112.713 43.3123 112.713 46.8903C112.713 50.4839 111.005 52.6462 108.137 52.6462Z" fill="white"/>
    <path d="M127.967 38.1475C125.647 38.1475 123.641 39.2987 122.607 41.2277H122.356V38.4275H119.112V61.0001H122.482V52.8018H122.748C123.641 54.5908 125.569 55.6486 127.998 55.6486C132.308 55.6486 135.05 52.2729 135.05 46.8903C135.05 41.5077 132.308 38.1475 127.967 38.1475ZM127.011 52.6462C124.19 52.6462 122.419 50.4372 122.419 46.9058C122.419 43.359 124.19 41.1499 127.026 41.1499C129.879 41.1499 131.587 43.3123 131.587 46.8903C131.587 50.4839 129.879 52.6462 127.011 52.6462Z" fill="white"/>
    <path d="M94.193 55.3686H98.059L89.5962 32.1018H85.6815L77.2188 55.3686H80.9547L83.1151 49.1932H92.0489L94.193 55.3686ZM87.4521 36.3263H87.7282L91.1231 46.1619H84.041L87.4521 36.3263Z" fill="white"/>
    <path d="M79.4805 14.5523V25.7763H83.563C86.9324 25.7763 88.8835 23.7151 88.8835 20.1293C88.8835 16.5979 86.9167 14.5523 83.563 14.5523H79.4805ZM81.2357 16.139H83.3671C85.71 16.139 87.097 17.6169 87.097 20.1526C87.097 22.7272 85.7335 24.1895 83.3671 24.1895H81.2357V16.139Z" fill="white"/>
    <path d="M94.8592 25.9397C97.351 25.9397 98.879 24.2829 98.879 21.5371C98.879 18.807 97.3432 17.1424 94.8592 17.1424C92.3674 17.1424 90.8315 18.807 90.8315 21.5371C90.8315 24.2829 92.3595 25.9397 94.8592 25.9397ZM94.8592 24.454C93.3939 24.454 92.5711 23.3884 92.5711 21.5371C92.5711 19.7015 93.3939 18.6281 94.8592 18.6281C96.3167 18.6281 97.1473 19.7015 97.1473 21.5371C97.1473 23.3806 96.3167 24.454 94.8592 24.454Z" fill="white"/>
    <path d="M111.891 17.3058H110.207L108.686 23.7695H108.553L106.798 17.3058H105.184L103.429 23.7695H103.303L101.775 17.3058H100.067L102.418 25.7763H104.149L105.905 19.5381H106.038L107.801 25.7763H109.548L111.891 17.3058Z" fill="white"/>
    <path d="M113.831 25.7763H115.516V20.8215C115.516 19.4992 116.308 18.6747 117.553 18.6747C118.799 18.6747 119.395 19.3515 119.395 20.7127V25.7763H121.08V20.2926C121.08 18.2781 120.03 17.1424 118.126 17.1424C116.84 17.1424 115.994 17.7102 115.579 18.6514H115.453V17.3058H113.831V25.7763Z" fill="white"/>
    <path d="M123.733 25.7763H125.418V14H123.733V25.7763Z" fill="white"/>
    <path d="M131.754 25.9397C134.246 25.9397 135.774 24.2829 135.774 21.5371C135.774 18.807 134.238 17.1424 131.754 17.1424C129.262 17.1424 127.726 18.807 127.726 21.5371C127.726 24.2829 129.254 25.9397 131.754 25.9397ZM131.754 24.454C130.288 24.454 129.466 23.3884 129.466 21.5371C129.466 19.7015 130.288 18.6281 131.754 18.6281C133.211 18.6281 134.042 19.7015 134.042 21.5371C134.042 23.3806 133.211 24.454 131.754 24.454Z" fill="white"/>
    <path d="M140.793 24.5084C139.876 24.5084 139.21 24.0651 139.21 23.3028C139.21 22.5561 139.743 22.1594 140.919 22.0816L143.003 21.9494V22.6572C143.003 23.7073 142.063 24.5084 140.793 24.5084ZM140.362 25.9163C141.483 25.9163 142.415 25.4341 142.925 24.5862H143.058V25.7763H144.68V19.9893C144.68 18.2003 143.473 17.1424 141.334 17.1424C139.398 17.1424 138.019 18.0758 137.847 19.5304H139.477C139.665 18.9314 140.315 18.5892 141.255 18.5892C142.407 18.5892 143.003 19.0948 143.003 19.9893V20.7204L140.691 20.8527C138.662 20.9771 137.518 21.8561 137.518 23.3806C137.518 24.9285 138.717 25.9163 140.362 25.9163Z" fill="white"/>
    <path d="M150.397 25.9163C151.572 25.9163 152.567 25.3641 153.077 24.4384H153.21V25.7763H154.824V14H153.139V18.6514H153.014C152.552 17.718 151.564 17.1658 150.397 17.1658C148.242 17.1658 146.855 18.8614 146.855 21.5371C146.855 24.2207 148.226 25.9163 150.397 25.9163ZM150.875 18.667C152.285 18.667 153.171 19.7793 153.171 21.5449C153.171 23.3184 152.293 24.4151 150.875 24.4151C149.449 24.4151 148.595 23.3339 148.595 21.5371C148.595 19.7559 149.457 18.667 150.875 18.667Z" fill="white"/>
    <path d="M165.749 25.9397C168.241 25.9397 169.769 24.2829 169.769 21.5371C169.769 18.807 168.233 17.1424 165.749 17.1424C163.257 17.1424 161.721 18.807 161.721 21.5371C161.721 24.2829 163.249 25.9397 165.749 25.9397ZM165.749 24.454C164.284 24.454 163.461 23.3884 163.461 21.5371C163.461 19.7015 164.284 18.6281 165.749 18.6281C167.206 18.6281 168.037 19.7015 168.037 21.5371C168.037 23.3806 167.206 24.454 165.749 24.454Z" fill="white"/>
    <path d="M171.999 25.7763H173.684V20.8215C173.684 19.4992 174.475 18.6747 175.721 18.6747C176.967 18.6747 177.562 19.3515 177.562 20.7127V25.7763H179.247V20.2926C179.247 18.2781 178.197 17.1424 176.293 17.1424C175.008 17.1424 174.162 17.7102 173.746 18.6514H173.621V17.3058H171.999V25.7763Z" fill="white"/>
    <path d="M187.006 15.1979V17.3447H185.651V18.7525H187.006V23.5362C187.006 25.1696 187.751 25.823 189.623 25.823C189.952 25.823 190.266 25.7841 190.54 25.7374V24.3451C190.305 24.3684 190.156 24.384 189.898 24.384C189.059 24.384 188.691 23.9951 188.691 23.1084V18.7525H190.54V17.3447H188.691V15.1979H187.006Z" fill="white"/>
    <path d="M192.802 25.7763H194.486V20.8293C194.486 19.5459 195.254 18.6825 196.633 18.6825C197.824 18.6825 198.459 19.367 198.459 20.7204V25.7763H200.144V20.3082C200.144 18.2936 199.023 17.1502 197.205 17.1502C195.92 17.1502 195.019 17.718 194.604 18.667H194.471V14H192.802V25.7763Z" fill="white"/>
    <path d="M206.221 18.5658C207.467 18.5658 208.282 19.4292 208.321 20.7593H204.012C204.106 19.437 204.975 18.5658 206.221 18.5658ZM208.313 23.4895C208 24.1506 207.303 24.5162 206.284 24.5162C204.936 24.5162 204.066 23.5751 204.012 22.0894V21.9961H210.037V21.4127C210.037 18.7525 208.603 17.1424 206.229 17.1424C203.824 17.1424 202.296 18.8614 202.296 21.5683C202.296 24.2751 203.792 25.9397 206.237 25.9397C208.188 25.9397 209.552 25.0063 209.936 23.4895H208.313Z" fill="white"/>
    <path d="M58.9372 36.2729C58.9781 33.1225 60.6825 30.1416 63.3863 28.4915C61.6806 26.0733 58.8235 24.5401 55.8511 24.4478C52.6807 24.1174 49.6071 26.3309 47.9915 26.3309C46.3447 26.3309 43.8573 24.4806 41.1787 24.5353C37.6874 24.6472 34.4325 26.6176 32.7339 29.6476C29.0825 35.9229 31.8061 45.1455 35.3038 50.2179C37.0538 52.7018 39.099 55.4763 41.7752 55.3779C44.3939 55.2701 45.372 53.7203 48.533 53.7203C51.6648 53.7203 52.5824 55.3779 55.3128 55.3154C58.1229 55.2701 59.8933 52.8205 61.5819 50.3131C62.8393 48.5433 63.8068 46.5872 64.4487 44.5174C61.1463 43.131 58.941 39.8321 58.9372 36.2729Z" fill="white"/>
    <path d="M53.7798 21.1119C55.312 19.2861 56.0668 16.9394 55.884 14.5701C53.5432 14.8141 51.381 15.9246 49.8281 17.6804C48.3097 19.3958 47.5194 21.7012 47.6688 23.98C50.0105 24.0039 52.3125 22.9235 53.7798 21.1119Z" fill="white"/>
</svg>
