<svg class="fill-current stroke-current w-auto h-12 " style="transform:rotate(0deg);" viewBox="0 0 38 38" version="1.1" xmlns="http://www.w3.org/2000/svg" xmlns:xlink="http://www.w3.org/1999/xlink">
    <g stroke="none" stroke-width="1" fill="none" fill-rule="evenodd">
        <g transform="translate(-159.000000, -44.000000)" fill="#E6E66E" fill-rule="nonzero">
            <path d="M162.780591,81.32799 C161.47538,79.06476 160.51899,76.78977 159.911392,74.50296 C159.303794,72.21616 159,69.94117 159,67.67794 C159,63.43438 160.001396,59.36769 162.004219,55.47776 C164.007042,51.58783 166.808702,48.01622 170.409283,44.76282 L174.122363,47.16749 C174.482421,47.40325 174.718705,47.66257 174.831224,47.94548 C174.943742,48.22838 175,48.51128 175,48.79418 C175,49.45429 174.774967,50.02009 174.324895,50.4916 C173.604778,51.43461 172.907176,52.42476 172.232068,53.46208 C171.556959,54.49939 170.94937,55.59563 170.409283,56.75082 C169.869196,57.90601 169.441633,59.12012 169.126582,60.39319 C168.811531,61.66626 168.654008,63.01004 168.654008,64.42456 C168.654008,65.93338 168.86779,67.48933 169.295359,69.09245 C169.722928,70.69557 170.454285,72.39297 171.489451,74.1847 C171.804502,74.70336 171.962025,75.24558 171.962025,75.81139 C171.962025,76.94301 171.354436,77.74456 170.139241,78.21606 L162.780591,81.32799 Z M184.780591,81.32799 C183.47538,79.06476 182.51899,76.78977 181.911392,74.50296 C181.303794,72.21616 181,69.94117 181,67.67794 C181,63.43438 182.001396,59.36769 184.004219,55.47776 C186.007042,51.58783 188.808702,48.01622 192.409283,44.76282 L196.122363,47.16749 C196.482421,47.40325 196.718705,47.66257 196.831224,47.94548 C196.943742,48.22838 197,48.51128 197,48.79418 C197,49.45429 196.774967,50.02009 196.324895,50.4916 C195.604778,51.43461 194.907176,52.42476 194.232068,53.46208 C193.556959,54.49939 192.94937,55.59563 192.409283,56.75082 C191.869196,57.90601 191.441633,59.12012 191.126582,60.39319 C190.811531,61.66626 190.654008,63.01004 190.654008,64.42456 C190.654008,65.93338 190.86779,67.48933 191.295359,69.09245 C191.722928,70.69557 192.454285,72.39297 193.489451,74.1847 C193.804502,74.70336 193.962025,75.24558 193.962025,75.81139 C193.962025,76.94301 193.354436,77.74456 192.139241,78.21606 L184.780591,81.32799 Z"></path>
        </g>
    </g>
</svg>
