<svg viewBox="0 0 26 26" version="1.1" xmlns="http://www.w3.org/2000/svg" xmlns:xlink="http://www.w3.org/1999/xlink">
    <title>Fill 4 Copy</title>
    <g stroke="none" stroke-width="1" fill="none" fill-rule="evenodd">
        <g id="Group-Copy" transform="translate(-785.000000, -615.000000)" fill="#FFFFFF">
            <g id="Group-38" transform="translate(539.000000, 125.000000)">
                <g id="Group-37" transform="translate(81.000000, 475.000000)">
                    <g id="Group-2-Copy-9" transform="translate(144.000000, 0.000000)">
                        <path fill="#ffffff" d="M34.719012,29.4827891 L35.4445828,24.9108561 L30.90577,24.9108561 L30.90577,21.9439497 C30.90577,20.6931553 31.5397655,19.4739629 33.5727381,19.4739629 L35.6363636,19.4739629 L35.6363636,15.5816417 C35.6363636,15.5816417 33.763528,15.2727273 31.9730303,15.2727273 C28.2348385,15.2727273 25.7916148,17.4623124 25.7916148,21.4263019 L25.7916148,24.9108561 L21.6363636,24.9108561 L21.6363636,29.4827891 L25.7916148,29.4827891 L25.7916148,40.535128 C26.6248066,40.661474 27.4787746,40.7272727 28.3486924,40.7272727 C29.2186102,40.7272727 30.0725782,40.661474 30.90577,40.535128 L30.90577,29.4827891 L34.719012,29.4827891" id="Fill-4-Copy"></path>
                    </g>
                </g>
            </g>
        </g>
    </g>
</svg>
