<svg viewBox="0 0 26 26" version="1.1" xmlns="http://www.w3.org/2000/svg" xmlns:xlink="http://www.w3.org/1999/xlink">
    <title>Path Copy</title>
    <g  stroke="none" stroke-width="1" fill="none" fill-rule="evenodd">
        <g transform="translate(-707.000000, -615.000000)" fill="#FFFFFF" fill-rule="nonzero">
            <g transform="translate(539.000000, 125.000000)">
                <g transform="translate(81.000000, 475.000000)">
                    <g  transform="translate(72.000000, 0.000000)">
                        <path fill="#ffffff" d="M40.3167155,28.297654 C40.3167155,35.5593842 35.3438416,40.7272727 28,40.7272727 C20.9589443,40.7272727 15.2727273,35.0410557 15.2727273,28 C15.2727273,20.9589443 20.9589443,15.2727273 28,15.2727273 C31.4281525,15.2727273 34.3123167,16.5300587 36.5344575,18.6033724 L33.0703812,21.9340176 C28.5388563,17.5615836 20.1121701,20.8460411 20.1121701,28 C20.1121701,32.4391496 23.6583578,36.0366569 28,36.0366569 C33.0395894,36.0366569 34.9281525,32.4237537 35.2258065,30.5505865 L28,30.5505865 L28,26.1730205 L40.1165689,26.1730205 C40.2346041,26.8247801 40.3167155,27.4508798 40.3167155,28.297654 Z" id="Path-Copy"></path>
                    </g>
                </g>
            </g>
        </g>
    </g>
</svg>
