<svg width="250" height="74" viewBox="0 0 250 74" fill="none" xmlns="http://www.w3.org/2000/svg">
    <path d="M240.483 0H9.25097C4.1418 0 0 4.1418 0 9.25097V64.7452C0 69.8543 4.1418 73.9961 9.25097 73.9961H240.483C245.592 73.9961 249.734 69.8543 249.734 64.7452V9.25097C249.734 4.1418 245.592 0 240.483 0Z" fill="black"/>
    <path d="M240.483 1.48062C244.766 1.48062 248.253 4.96761 248.253 9.25097V64.749C248.253 69.0324 244.766 72.5194 240.483 72.5194H9.25097C4.96761 72.5194 1.48062 69.0324 1.48062 64.749V9.25097C1.48062 4.96375 4.96375 1.48062 9.25097 1.48062H240.486M240.483 0H9.25097C4.16352 0 0 4.16352 0 9.25097V64.749C0 69.8365 4.16352 74 9.25097 74H240.486C245.574 74 249.737 69.8365 249.737 64.749V9.25097C249.734 4.16352 245.57 0 240.483 0Z" fill="#A6A6A6"/>
    <path d="M85.0471 23.5855C84.4402 23.8019 83.2495 24.1576 81.8385 24.1576C80.2574 24.1576 78.9546 23.7556 77.934 22.7775C77.0371 21.9077 76.4766 20.516 76.4766 18.8885C76.492 15.7726 78.6298 13.4956 82.1323 13.4956C83.3423 13.4956 84.2856 13.7585 84.734 13.975L84.4093 15.0767C83.8526 14.8293 83.1529 14.6283 82.1014 14.6283C79.5615 14.6283 77.9031 16.2094 77.9031 18.8266C77.9031 21.4438 79.4997 23.0404 81.9313 23.0404C82.8165 23.0404 83.4196 22.9167 83.7289 22.762V19.6462H81.6065V18.5599H85.0471V23.5816V23.5855Z" fill="white" stroke="white" stroke-width="0.2" stroke-miterlimit="10"/>
    <path d="M92.8341 19.1515H88.775V22.9168H93.3019V24.0495H87.4297V13.604H93.07V14.7367H88.7789V18.0381H92.838V19.1515H92.8341Z" fill="white" stroke="white" stroke-width="0.2" stroke-miterlimit="10"/>
    <path d="M97.5918 14.7522H94.4141V13.604H102.15V14.7522H98.9564V24.0495H97.5918V14.7522Z" fill="white" stroke="white" stroke-width="0.2" stroke-miterlimit="10"/>
    <path d="M108.568 13.604V24.0495H107.219V13.604H108.568Z" fill="white" stroke="white" stroke-width="0.2" stroke-miterlimit="10"/>
    <path d="M113.217 14.7522H110.039V13.604H117.775V14.7522H114.581V24.0495H113.217V14.7522Z" fill="white" stroke="white" stroke-width="0.2" stroke-miterlimit="10"/>
    <path d="M131.771 18.7184C131.771 22.3137 129.587 24.2195 126.92 24.2195C124.252 24.2195 122.227 22.0817 122.227 18.9195C122.227 15.6026 124.287 13.4338 127.074 13.4338C129.862 13.4338 131.771 15.618 131.771 18.7184ZM123.669 18.8885C123.669 21.1191 124.879 23.1178 126.997 23.1178C129.115 23.1178 130.345 21.1501 130.345 18.7803C130.345 16.7043 129.259 14.5356 127.012 14.5356C124.766 14.5356 123.669 16.5961 123.669 18.8885Z" fill="white" stroke="white" stroke-width="0.2" stroke-miterlimit="10"/>
    <path d="M133.836 24.0495V13.604H135.309L138.657 18.8886C139.43 20.1141 140.037 21.212 140.532 22.2828L140.563 22.2674C140.439 20.8718 140.408 19.5999 140.408 17.9763V13.604H141.68V24.0495H140.319L137.002 18.7494C136.275 17.5897 135.576 16.3951 135.05 15.2625L135.003 15.2779C135.081 16.5962 135.112 17.8487 135.112 19.5845V24.0457H133.84L133.836 24.0495Z" fill="white" stroke="white" stroke-width="0.2" stroke-miterlimit="10"/>
    <path d="M126.043 40.2397C121.69 40.2397 118.145 43.5488 118.145 48.1067C118.145 52.6645 121.69 55.9736 126.043 55.9736C130.396 55.9736 133.94 52.6374 133.94 48.1067C133.94 43.5759 130.396 40.2397 126.043 40.2397ZM126.043 52.8771C123.657 52.8771 121.601 50.9094 121.601 48.1105C121.601 45.3116 123.657 43.3439 126.043 43.3439C128.428 43.3439 130.484 45.2807 130.484 48.1105C130.484 50.9403 128.428 52.8771 126.043 52.8771ZM108.812 40.2397C104.46 40.2397 100.915 43.5488 100.915 48.1067C100.915 52.6645 104.46 55.9736 108.812 55.9736C113.165 55.9736 116.71 52.6374 116.71 48.1067C116.71 43.5759 113.165 40.2397 108.812 40.2397ZM108.812 52.8771C106.427 52.8771 104.371 50.9094 104.371 48.1105C104.371 45.3116 106.427 43.3439 108.812 43.3439C111.198 43.3439 113.254 45.2807 113.254 48.1105C113.254 50.9403 111.198 52.8771 108.812 52.8771ZM88.3196 42.6558V45.992H96.3065C96.0668 47.8708 95.4405 49.2393 94.4895 50.1942C93.3259 51.3578 91.509 52.6374 88.3196 52.6374C83.4023 52.6374 79.5596 48.6749 79.5596 43.7576C79.5596 38.8402 83.4023 34.8777 88.3196 34.8777C90.9716 34.8777 92.9084 35.9215 94.3388 37.263L96.6931 34.9087C94.6983 33.0028 92.0425 31.5415 88.3196 31.5415C81.5853 31.5415 75.9219 37.0233 75.9219 43.7614C75.9219 50.4996 81.5853 55.9814 88.3196 55.9814C91.9535 55.9814 94.6983 54.7907 96.8438 52.5524C99.0474 50.3488 99.7355 47.2484 99.7355 44.7434C99.7355 43.9702 99.6775 43.255 99.5576 42.6558H88.3235H88.3196ZM172.135 45.2498C171.478 43.4908 169.483 40.2435 165.401 40.2435C161.318 40.2435 157.978 43.4328 157.978 48.1105C157.978 52.5214 161.315 55.9775 165.787 55.9775C169.394 55.9775 171.478 53.774 172.344 52.4905L169.661 50.7006C168.768 52.0112 167.546 52.8771 165.787 52.8771C164.028 52.8771 162.776 52.073 161.972 50.4919L172.491 46.1389L172.131 45.2459L172.135 45.2498ZM161.407 47.8708C161.318 44.8323 163.762 43.2821 165.521 43.2821C166.893 43.2821 168.053 43.9663 168.443 44.9521L161.411 47.8708H161.407ZM152.852 55.502H156.308V32.3765H152.852V55.502ZM147.189 42.0025H147.069C146.296 41.0785 144.803 40.2435 142.925 40.2435C138.989 40.2435 135.386 43.6996 135.386 48.1414C135.386 52.5833 138.993 55.9814 142.925 55.9814C144.803 55.9814 146.292 55.1464 147.069 54.1915H147.189V55.3242C147.189 58.3357 145.581 59.9439 142.987 59.9439C140.872 59.9439 139.558 58.4246 139.024 57.1411L136.013 58.3937C136.879 60.4812 139.171 63.0443 142.987 63.0443C147.038 63.0443 150.467 60.659 150.467 54.8487V40.7229H147.189V42.0063V42.0025ZM143.226 52.881C140.841 52.881 138.846 50.8862 138.846 48.1414C138.846 45.3967 140.845 43.3439 143.226 43.3439C145.608 43.3439 147.428 45.3696 147.428 48.1414C147.428 50.9133 145.581 52.881 143.226 52.881ZM188.329 32.3765H180.056V55.502H183.508V46.742H188.329C192.156 46.742 195.918 43.9741 195.918 39.5593C195.918 35.1445 192.156 32.3765 188.329 32.3765ZM188.418 43.5218H183.508V35.5929H188.418C191 35.5929 192.465 37.7307 192.465 39.5554C192.465 41.3801 191 43.5179 188.418 43.5179V43.5218ZM209.75 40.201C207.252 40.201 204.662 41.3028 203.591 43.7421L206.657 45.0217C207.31 43.7421 208.532 43.3246 209.812 43.3246C211.598 43.3246 213.411 44.3954 213.442 46.3013V46.541C212.815 46.1853 211.478 45.648 209.842 45.648C206.541 45.648 203.178 47.4611 203.178 50.8553C203.178 53.9479 205.884 55.9427 208.919 55.9427C211.238 55.9427 212.518 54.9028 213.322 53.6812H213.442V55.4672H216.774V46.6028C216.774 42.4973 213.708 40.2049 209.754 40.2049L209.75 40.201ZM209.332 52.8771C208.203 52.8771 206.626 52.3127 206.626 50.9133C206.626 49.1272 208.59 48.443 210.287 48.443C211.806 48.443 212.518 48.7716 213.442 49.2161C213.175 51.3578 211.331 52.8771 209.336 52.8771H209.332ZM228.909 40.7074L224.95 50.7354H224.83L220.725 40.7074H217.006L223.164 54.7211L219.654 62.5147H223.253L232.744 40.7074H228.905H228.909ZM197.82 55.502H201.272V32.3765H197.82V55.502Z" fill="white"/>
    <path d="M38.3215 35.9331L18.625 56.8357C18.625 56.8357 18.625 56.8434 18.625 56.8473C19.2281 59.1165 21.3002 60.7866 23.7627 60.7866C24.7446 60.7866 25.6686 60.5198 26.4611 60.0559L26.5229 60.0173L48.6935 47.2252L38.3176 35.9292L38.3215 35.9331Z" fill="#EA4335"/>
    <path d="M58.248 32.3726L58.2287 32.361L48.6568 26.8135L37.875 36.4085L48.6955 47.2251L58.2171 41.7318C59.8871 40.831 61.0198 39.0721 61.0198 37.0425C61.0198 35.0129 59.9026 33.2772 58.248 32.3726Z" fill="#FBBC04"/>
    <path d="M18.627 17.1606C18.5072 17.5975 18.4453 18.0575 18.4453 18.5292V55.4673C18.4453 55.9428 18.5072 56.399 18.627 56.8358L39 36.4667L18.627 17.1606Z" fill="#4285F4"/>
    <path d="M38.4645 37.0001L48.6587 26.8098L26.5152 13.9713C25.7111 13.4881 24.7717 13.2097 23.7666 13.2097C21.304 13.2097 19.2281 14.8836 18.625 17.1567C18.625 17.1567 18.625 17.1567 18.625 17.1606L38.4645 37.0001Z" fill="#34A853"/>
</svg>
