<svg  viewBox="0 0 200 70" version="1.1" xmlns="http://www.w3.org/2000/svg" xmlns:xlink="http://www.w3.org/1999/xlink">
    <path fill= "#649492" d="M200,24.6743707 C200,20.4192945 196.310305,16.0018246 190.774843,16 C184.424964,16 181.2776,20.6856929 181.275762,26.5026668 C181.275762,31.2960138 182.522206,34.4216338 187.298403,36.3612333 L191.260184,37.9778703 C193.973682,39.0562365 194.460861,39.7021615 194.460861,43.7966689 C194.460861,47.2963413 194.188776,49.5059886 190.443928,49.5041639 C187.621964,49.5041639 186.535462,47.5645644 186.5373,45.5720502 L186.5373,43.847759 L181.001838,43.847759 L181,45.8950126 C181,51.0660616 185.070247,54.9981754 190.44209,55 C197.606386,55 199.994485,50.2066529 199.996323,43.7419294 C199.998162,38.1402639 199.075278,35.071208 194.190614,33.237438 L189.958587,31.5678862 C187.081471,30.4366052 186.811224,29.4129784 186.811224,26.449752 C186.811224,23.9171423 187.517175,21.4940114 190.556072,21.4940114 C193.379874,21.4958361 194.464538,23.5960045 194.464538,26.1286142 L194.464538,27.3675494 L200,27.3675494 L200,24.6743707 Z M164.005642,22 L166.614186,22 C169.946803,22 171,23.7236662 171,26.7387141 L170.996239,45.2083903 C170.996239,48.4933881 169.773778,50 166.610425,50 L164,50 L164.005642,22 Z M159,54.9981915 L166.743047,54.9999993 C173.287326,55.0018071 176.996305,51.6392952 176.998152,44.5942906 L176.999999,26.8235964 C177.001846,20.6861084 173.512673,17.0036156 167.241765,17.0018078 L159.007388,17 L159,54.9981915 Z M136,54.9963846 L141.573346,54.9963846 L141.577048,38.7739403 L144.910689,38.7739403 L150.097177,54.9981923 L156,55 L149.991671,37.6549641 C153.54373,35.7351696 154.800555,32.5318967 154.802406,28.1572237 C154.804257,20.7925884 151.579824,17.0018077 144.96807,17.0018077 L136.007404,17 L136,54.9963846 Z M141.001935,21 L144.030479,21.0018309 C148.314949,21.0018309 149,23.111077 149,27.0018304 C148.998065,30.8394864 148.369134,33.0018298 144.313014,32.9999988 L141,33 L141.001935,21 Z M111,53.9963846 L116.567958,53.9963846 L118.208204,45.830931 L125.795495,45.8327387 L127.432042,53.9981923 L133,54 L124.327225,16.0018077 L119.687568,16 L111,53.9963846 Z M125,41 L119,41 L121.943208,27 L122.060777,27 L125,41 Z M95.0039254,24.8777927 C95.0058881,22.238486 96.8586846,21 99.0039246,21 C101.147202,21.001824 103.001961,22.24031 102.999998,24.8777927 L102.996073,45.1240293 C102.996073,47.763336 101.141314,49.001822 98.9980365,48.999998 C96.8547592,48.999998 95,47.761512 95,45.1222053 L95.0039254,24.8777927 Z M89,45.6249649 C89,51.8725554 93.886413,54.9981754 98.4962366,55 C103.107942,55 107.996236,51.8762047 107.996236,45.6286142 L107.999999,25.3750351 C108.001881,19.1256199 103.115468,16.0018246 98.5037628,16 C93.8939393,16 89.0056447,19.1219706 89.0037631,25.3713858 L89,45.6249649 Z M72.0017958,21 L74.2285788,21 C77.7806567,21 79,22.8536122 79,26.3878327 C78.9982042,30.0361217 78.0446383,32 74.4386865,32 L72,32 L72.0017958,21 Z M72.0017963,37 L74.3872197,37 C78.3120317,37 79.0017928,38.948596 78.9999965,42.6853365 C78.9999965,46.3685931 78.6802635,49 74.3333322,49 L72,49 L72.0017963,37 Z M67,53.9981915 L74.5786557,53.9999993 C81.7768086,54.0018071 84.9944587,50.2650803 84.9963058,43.6485247 L84.9963058,41.5135105 C84.9981529,37.563463 83.7975372,35.2693622 81.180195,34.0418646 C83.6349923,32.5468123 84.9981529,31.0535678 85,26.9968599 L85,25.6102758 C85,20.6460513 82.3290918,16.0036156 75.132786,16.0018078 L67.0073884,16 L67,53.9981915 Z M50.689013,54 L56.2960894,54 L56.2998138,37.9358706 L64,16.0036156 L58.0633147,16.0018078 L53.5512104,31.1041865 L53.4413408,31.1041865 L48.9366853,16 L43,16 L50.6927374,37.9358706 L50.689013,54 Z M25,53.9963846 L41.9943194,54 L41.9943194,48.5569668 L30.7032747,48.5533514 L30.7051682,37.4015508 L40.5438851,37.4033585 L40.5438851,32.2802911 L30.7070617,32.2784834 L30.7089552,21.1248751 L42,21.1266828 L42,16.0036154 L25.0075741,16 L25,53.9963846 Z M2,53.9963846 L7.62203254,53.9963846 L7.62389971,42.6294658 L10.656175,37.1340088 L17.0474793,53.9981923 L23,54 L13.9106428,31.2119309 L21.5734863,16.0036154 L15.9514537,16.0018077 L7.73592958,33.3450359 L7.62576687,33.3450359 L7.6295012,16 L2.00746866,16 L2,53.9963846 Z"></path>
</svg>
