<svg width="913" height="495" viewBox="0 0 913 495" fill="none" xmlns="http://www.w3.org/2000/svg">
<path fill-rule="evenodd" clip-rule="evenodd" d="M604.611 1495.38C808.658 1500.36 1018.08 1399.9 1203.3 1245.04C1388.13 1090.53 1549.14 881.572 1575.27 646.942C1601.78 411.937 1493.43 150.845 1308.2 55.3834C1122.98 -39.7025 861.3 30.8531 663.4 94.875C465.513 158.508 331.392 215.269 201.508 310.342C71.6362 405.415 -54.4144 539.228 -87.0709 705.609C-119.727 872.003 -59.0276 1070.6 71.2465 1225.1C201.131 1379.99 400.175 1490.39 604.611 1495.38Z" fill="#357471"></path>
<rect width="1778.14" height="1778.14" transform="matrix(1 0 0 -1 -131.333 1602.24)" stroke="#357471"></rect>
</svg>
