<svg viewBox="0 0 1224 505" fill="none" xmlns="http://www.w3.org/2000/svg">
<path fill-rule="evenodd" clip-rule="evenodd" d="M-192.981 38.0936C-250.884 -85.8705 -270.513 -224.173 -267.163 -363.971C-263.165 -504.231 -236.356 -645.674 -161.56 -756.762C-86.9321 -867.535 35.5152 -947.638 159.937 -954.087C284.045 -960.702 410.294 -893.977 537.51 -859.411C664.894 -825.159 794.039 -823.046 904.166 -767.717C1014.29 -712.388 1105.55 -603.363 1135.57 -479.299C1165.59 -355.235 1134.7 -215.966 1068.84 -105.77C1003.31 4.59262 903.296 85.7349 801.097 158.857C698.416 232.125 592.918 297.039 468.72 332.649C344.669 368.74 201.456 374.878 81.9915 323.458C-38.2695 272.019 -134.763 162.225 -192.981 38.0936Z" fill="#E6E66E"></path>
<path fill-rule="evenodd" clip-rule="evenodd" d="M-192.981 38.0936C-250.884 -85.8705 -270.513 -224.173 -267.163 -363.971C-263.165 -504.231 -236.356 -645.674 -161.56 -756.762C-86.9321 -867.535 35.5152 -947.638 159.937 -954.087C284.045 -960.702 410.294 -893.977 537.51 -859.411C664.894 -825.159 794.039 -823.046 904.166 -767.717C1014.29 -712.388 1105.55 -603.363 1135.57 -479.299C1165.59 -355.235 1134.7 -215.966 1068.84 -105.77C1003.31 4.59262 903.296 85.7349 801.097 158.857C698.416 232.125 592.918 297.039 468.72 332.649C344.669 368.74 201.456 374.878 81.9915 323.458C-38.2695 272.019 -134.763 162.225 -192.981 38.0936Z" fill="#E6E66E"></path>
</svg>
