<svg viewBox="0 0 200 70" version="1.1" xmlns="http://www.w3.org/2000/svg" xmlns:xlink="http://www.w3.org/1999/xlink">
    <path fill="#649492" d="M46.3448124,36.9970421 C47.0268904,36.6722245 47.7769637,36.2832708 48.4611665,35.9584532 C48.7331477,35.8281123 49.6893318,35.5032946 49.8253224,35.2446818 C49.8933177,35.114341 49.8253224,34.7253874 49.8253224,34.5309105 L49.8253224,32.9709582 L49.8253224,21.8712972 L49.8253224,11.02818 L49.8253224,9.60063741 C49.8253224,9.53650144 49.8933177,9.08134292 49.8253224,9.01720695 C49.7573271,8.95100208 49.2112397,9.01720695 49.1432444,9.01720695 L47.640973,9.01720695 C47.0948857,9.01720695 47.162881,9.08134292 46.8229045,9.47029656 C45.5267438,11.0943849 44.2305832,12.7164043 42.9322978,14.4046286 C42.3182151,15.1846048 41.7041325,15.8983761 41.1580451,16.6762834 C40.7500733,17.1955779 40.7500733,17.2617828 40,17.2617828 C40.0679953,15.8321712 40.1359906,14.4046286 40.2039859,12.977086 C40.2719812,11.938497 40.2719812,10.8999081 40.3399766,9.8613191 C40.3399766,9.47029656 40.4079719,9.08134292 40.4079719,8.69238929 C40.4079719,8.56204844 40.3399766,8.1730948 40.4079719,8.10688992 C40.5439625,7.91241311 41.7721278,8.04275395 42.1142292,8.04275395 L47.0268904,8.04275395 L60.4007181,8.04275395 L65.8594666,8.04275395 L67.6337192,8.04275395 C67.7697098,8.04275395 68.3837925,7.97861798 68.521908,8.04275395 C68.6578986,8.10688992 68.5899033,8.49791247 68.5899033,8.69238929 C68.6578986,9.53650144 68.6578986,10.4447496 68.7258939,11.2888617 C68.7938892,13.1715628 68.8618845,14.9880591 69,16.8707602 L69,17.2617828 C68.6578986,17.2617828 68.3837925,17.3259187 68.1118113,17.1314419 C67.83983,16.9369651 67.6337192,16.5480114 67.4297333,16.2873298 C66.6116647,15.2487408 65.7914713,14.1460158 64.9054074,13.105358 C64.085214,12.066769 63.2671454,11.02818 62.4490768,9.98959105 C62.3109613,9.79511423 62.1069754,9.33995572 61.8349941,9.21168377 C61.6288834,9.08134292 61.2209115,9.1454789 60.9468054,9.1454789 L59.8546307,9.1454789 C59.7186401,9.1454789 59.1725528,9.08134292 59.0365621,9.1454789 C58.9685668,9.21168377 59.0365621,9.21168377 58.9685668,9.33995572 C58.8325762,9.8613191 58.9685668,10.5088855 58.9685668,11.02818 L58.9685668,17.9755541 L58.9685668,33.6205935 C58.9685668,34.075752 58.8325762,34.7253874 58.9685668,35.178477 C59.1045574,35.6336355 60.1967321,35.9584532 60.6748242,36.15293 C61.1529162,36.4136117 61.9709848,36.6080885 62.3810815,36.9970421 C62.5170721,37.127383 62.6530627,37.7770183 62.5170721,37.9714951 C62.4490768,38.0356311 62.1069754,37.9714951 62.0389801,37.9714951 L60.8108148,37.9714951 L52.4176436,37.9714951 L48.3910463,37.9714951 L47.0268904,37.9714951 C46.8908998,37.9714951 46.4128077,38.0356311 46.3448124,37.9714951 C46.2768171,37.7108134 46.3448124,37.1915189 46.3448124,36.9970421 M70.7276173,35.7734061 L70.7276173,26.1829088 L70.7276173,10.4813742 L70.7276173,7.91888371 C70.7276173,7.52529858 70.8634675,6.93492088 70.7276173,6.53924221 C70.5917671,6.0807574 69.7724206,6.01376418 69.2969449,5.81697161 C69.0231218,5.75207194 68.1379729,5.55527937 68,5.29149359 L68,4.76601557 L68.205898,4.76601557 C68.4775984,4.63412267 69.0231218,4.63412267 69.36487,4.569223 C69.9783186,4.43733011 70.5917671,4.37243043 71.1372906,4.24053754 C72.5000379,3.9788453 73.9307103,3.71505952 75.2955803,3.51826695 C76.1128042,3.38637406 76.930028,3.18958149 77.7493746,3.0576886 C77.9531499,3.0576886 78.7703737,2.92788925 78.8382988,3.0576886 C78.9083466,3.12468182 78.8382988,3.38637406 78.8382988,3.45336727 L78.8382988,16.6573111 L78.8382988,17.0508962 C81.430066,14.555399 85.9279812,13.1757575 89.5407475,14.029921 C92.6759154,14.7521916 93.6990372,17.5763743 93.6990372,20.4675502 C93.7669623,24.1458963 93.6990372,27.7593428 93.6990372,31.437689 L93.6990372,34.3937646 C93.6990372,34.72245 93.563187,35.5117138 93.6990372,35.8403993 C93.7669623,35.9701987 94.0407854,36.0371919 94.1766356,36.1669912 C94.6542339,36.430777 95.1997574,36.6924692 95.6752331,36.956255 C95.7431582,37.0211547 95.9490562,37.0881479 95.9490562,37.1530476 C96.0169813,37.2200408 96.0169813,37.8104185 95.9490562,37.8753182 C95.8811311,38.0072111 95.8811311,37.9423114 95.6752331,37.9423114 C94.9259343,38.0721108 94.1087105,37.9423114 93.4273368,37.9423114 L89.8824956,37.9423114 L83.6100371,37.9423114 C83.542112,37.9423114 83.2024865,38.0072111 83.1324388,37.9423114 C83.0645137,37.8753182 83.0645137,37.1530476 83.1324388,37.0881479 C83.3383367,36.8243621 84.1555606,36.5626699 84.4293837,36.3658773 C84.633159,36.2339844 85.2466075,36.0371919 85.3824577,35.8403993 C85.5183079,35.6415132 85.3824577,34.9192426 85.3824577,34.72245 L85.3824577,32.0301602 C85.3824577,28.2199212 85.4503828,24.3426889 85.3824577,20.5324498 C85.3824577,19.4165941 85.1786824,18.1018523 84.0197104,17.5114746 C83.4062618,17.1827891 82.589038,17.1157959 81.9055417,17.1157959 C81.3621409,17.1157959 80.8166174,17.2476888 80.339019,17.3795817 C79.9293458,17.5114746 79.180047,17.7731668 78.9083466,18.1018523 C78.7024486,18.3656381 78.8382988,18.7592232 78.8382988,19.0879087 L78.8382988,21.5185062 L78.8382988,34.5905571 C78.8382988,34.9192426 78.7024486,35.5766135 78.8382988,35.8403993 C78.9083466,35.9701987 79.180047,36.1020915 79.3838223,36.1669912 C79.8614207,36.430777 80.4748692,36.6924692 80.9524676,36.956255 C81.0203927,37.0211547 81.1562429,37.0211547 81.1562429,37.0881479 C81.224168,37.1530476 81.224168,37.7455188 81.1562429,37.8104185 C81.0883178,37.8753182 81.0203927,37.8753182 80.8845425,37.8753182 C80.1352437,37.9423114 79.3158972,37.8753182 78.5665984,37.8753182 L71.2731408,37.8753182 L68.7514214,37.8753182 C68.6834963,37.8753182 68.3417482,37.9423114 68.2738231,37.8753182 C68.205898,37.8104185 68.2738231,37.1530476 68.3417482,37.0211547 C68.5455235,36.7594625 69.2969449,36.4956767 69.5686453,36.3658773 C70.0462437,36.1669912 70.3858692,35.9701987 70.7276173,35.7734061 M103.058789,26.3178896 C103.195394,29.1485458 104.153766,32.2989576 106.896546,33.8423929 C108.335171,34.6151354 110.117444,34.8713497 111.763112,34.7442674 C113.750293,34.5495445 115.39596,33.6497197 117.109931,32.813436 C117.109931,33.0717001 117.178233,33.5205876 117.109931,33.7788517 C116.973325,34.035066 116.629677,34.3568713 116.424769,34.5495445 C116.149424,34.8078086 115.807911,35.1296138 115.464263,35.3858281 C114.298849,36.2877027 112.996829,36.9292634 111.626506,37.3802007 C109.020332,38.2164844 106.004342,38.1529432 103.331999,37.5093327 C101.208213,36.9948543 99.2872001,36.0294386 97.8485749,34.4860033 C96.4099497,32.942568 95.5860486,30.9481955 95.2445352,28.8902817 C94.4910713,24.4526491 95.3811406,19.3714059 99.2872001,16.4116176 C102.715141,13.8392255 108.198565,13.3247471 112.243365,14.8681824 C117.178233,16.7334229 118,22.0073392 118,26.3814307 L104.909364,26.3814307 C104.292506,26.3178896 103.675647,26.3178896 103.058789,26.3178896 M103,25 C104.289791,24.9377966 105.577576,24.8755932 106.92955,24.7491798 C107.703826,24.6869764 108.540284,24.6869764 109.312554,24.6227664 C109.442937,24.6227664 109.763881,24.6227664 109.892258,24.560563 C110.08683,24.4341496 109.958453,23.1740289 109.958453,22.9232087 C109.892258,20.6557941 109.828069,17.8867391 108.476096,15.9343547 C107.509254,14.5478206 106.028903,14.8006474 105.12625,16.060768 C103.258761,18.5147929 103,22.166735 103,25 M1,49.2282856 C1,45.5918596 1.7519794,41.8250437 3.86559382,38.7722671 C5.9112327,35.7836506 9.18680399,33.8360826 12.7342774,32.8612638 C17.0316061,31.6918951 21.8068877,31.8222849 26.2401674,32.6025539 C27.1960734,32.7971037 28.1498552,32.9916535 29.0377856,33.2524331 C29.1737367,33.3165932 29.7876408,33.4469829 29.8556164,33.575303 L29.8556164,33.7719225 C30.059543,34.5501219 29.9235919,35.5249407 29.9235919,36.30314 C29.9915674,38.3169377 29.9915674,40.3948955 30.059543,42.4086932 C29.7876408,42.4086932 29.3096878,42.4728532 29.1057612,42.4086932 C28.9698101,42.3445331 28.8317348,42.0195935 28.7637593,41.8892037 C28.2178307,41.1089347 27.6719022,40.3307354 27.1960734,39.4863064 C26.0362407,37.7332882 24.8084326,35.9782004 23.6485999,34.2251823 C23.0346958,33.2524331 21.3289347,33.2524331 20.2370776,33.2524331 C19.0092694,33.2524331 17.7814612,33.4469829 16.7575797,34.0306324 C14.4400386,35.3945509 13.3481815,38.0582278 12.7342774,40.4611252 C11.7783714,44.2921011 11.846347,48.3176269 12.0523978,52.2148325 C12.2563244,55.203449 12.5282266,58.3845457 13.7560348,61.1123827 C14.5080142,62.8012408 15.8037979,64.2955491 17.7814612,64.6846487 C18.3953653,64.8150385 19.0092694,64.8150385 19.691149,64.7488088 C20.1011265,64.6846487 21.5328613,64.6204887 21.7389121,64.2293193 C21.8068877,64.1009992 21.7389121,63.7760596 21.7389121,63.6456698 L21.7389121,62.5425309 L21.7389121,55.6567087 L21.7389121,52.9951015 C21.7389121,52.5397721 21.8748632,52.3452223 21.4648857,52.0844427 C20.9869327,51.8257328 20.4410042,51.5649533 19.9651754,51.2420833 C19.6231735,51.0454638 18.9412939,50.850914 18.7373672,50.5922041 C18.5992919,50.4618143 18.5313164,49.7477751 18.6693917,49.6173853 C18.7373672,49.4869955 18.7373672,49.5532252 18.9412939,49.5532252 C19.5551979,49.4228355 20.3730286,49.5532252 20.9869327,49.5532252 L24.3304796,49.5532252 L31.5613775,49.5532252 C32.2432572,49.5532252 32.9931123,49.4869955 33.674992,49.5532252 L33.9490183,49.5532252 C34.0169939,49.6173853 34.0169939,50.5259744 33.9490183,50.6563642 C33.8130673,50.850914 33.1311876,51.1116936 32.8571612,51.2420833 C32.3792082,51.5007932 31.8332797,51.7615728 31.3574509,52.0844427 C30.8115224,52.3452223 30.8794979,52.3452223 30.8794979,52.9288718 L30.8794979,59.0344249 L30.8794979,62.3459114 L30.8794979,63.5152801 C30.8794979,63.6456698 30.9474734,63.9706094 30.8794979,64.1009992 C30.7435468,64.4259388 29.3096878,64.6204887 28.8997103,64.7488088 C27.7420019,65.0737484 26.5141938,65.3345279 25.2863856,65.5290778 C22.8987448,65.9181774 20.511104,66.0485672 18.1234631,65.9844072 C14.3019633,65.8540174 10.2786611,65.0737484 7.13904088,62.8654008 C4.41152237,60.9819929 2.63778565,58.1258358 1.81995494,55.0088992 C1.20605085,53.1896513 1,51.1758536 1,49.2282856 M32.0300633,43.4221595 C32.0300633,43.2950327 31.9624209,42.7783237 32.0300633,42.7147602 C32.0977056,42.6511968 32.1674617,42.7147602 32.235104,42.6511968 C32.6409579,42.4584562 33.1842103,42.4584562 33.6598204,42.3928423 C35.2219352,42.1365382 36.7819361,41.8781837 38.4116932,41.6218796 C39.6334826,41.429139 40.855272,41.1707845 42.0094191,41.0416072 C42.3497445,40.9780438 42.7555984,40.9780438 43.0959238,41.107221 C43.4341354,41.1707845 43.2988508,41.107221 43.3664931,41.3635251 C43.5017777,42.1365382 43.3664931,43.0366782 43.3664931,43.8096913 L43.3664931,48.0561373 L43.3664931,57.2564286 C43.3664931,58.8639678 42.890883,61.8247926 44.5206401,62.7884959 C45.3365756,63.3031545 46.4886088,63.3031545 47.439829,63.1104139 C48.1860083,62.983287 49.6128384,62.4686285 49.8834077,61.6956153 C49.95105,61.5028747 49.8834077,61.2445202 49.8834077,61.0517795 L49.8834077,59.7005444 L49.8834077,50.7586076 L49.8834077,46.6392884 L49.8834077,45.2880532 C49.8834077,45.1609264 49.95105,44.7733946 49.8834077,44.6462678 C49.6804808,44.4514767 49.0019437,44.258736 48.796903,44.1951726 C48.3910491,44.0659954 48.0507236,43.8732547 47.6427559,43.7440774 C47.5074713,43.680514 47.0318612,43.6149002 46.9642189,43.4877734 C46.8965766,43.4221595 46.8965766,42.8439375 46.9642189,42.7783237 C47.0318612,42.7147602 47.0318612,42.7783237 47.0995035,42.7147602 C47.439829,42.5220196 48.0507236,42.585583 48.3910491,42.5220196 C51.1728394,42.0709244 54.0243859,41.4927024 56.8759324,41.107221 C57.214144,41.0416072 57.5544694,41.0416072 57.892681,41.107221 C58.2330064,41.1707845 58.0977218,41.0416072 58.1653641,41.3635251 C58.3006487,42.007361 58.1653641,42.9075009 58.1653641,43.6149002 L58.1653641,52.3025833 L58.1653641,60.8590388 L58.1653641,62.1467105 C58.1653641,62.3394512 58.0977218,62.6613691 58.1653641,62.9176732 C58.2330064,63.1104139 58.1653641,63.0468505 58.5035757,63.1760277 C59.1842265,63.4323318 59.9304058,63.7542497 60.6089428,64.0126042 C60.8118698,64.0761677 60.8795121,64.0761677 60.9492683,64.2053449 C61.0169106,64.3345222 61.0169106,64.7835669 60.9492683,64.7835669 C60.8118698,64.9127442 60.1333328,64.8491808 59.9980482,64.9127442 C58.5035757,65.1054848 57.011217,65.2346621 55.4491022,65.4274028 C54.0920282,65.55658 52.7349542,65.7493207 51.4455225,65.878498 C51.1728394,65.9420614 50.9022701,65.9420614 50.629587,65.878498 C50.4943024,65.878498 50.0863347,65.878498 50.0186923,65.8128841 C49.95105,65.6837069 50.0186923,65.1690483 50.0186923,65.0419214 L50.0186923,63.9469904 C50.0186923,63.7542497 50.1560908,63.2395911 50.0186923,63.0468505 C49.8834077,62.8541098 49.6128384,63.1104139 49.4077977,63.2395911 C48.8645453,63.6906863 48.2536506,64.1397311 47.6427559,64.461649 C45.4042179,65.7493207 42.6203138,66.3275427 40.0414504,65.8128841 C38.141124,65.4274028 36.5113669,64.3980856 35.6954314,62.6613691 C35.0845367,61.4372608 34.9492521,60.0860257 34.9492521,58.8004044 L34.9492521,51.1440889 L34.9492521,46.7684656 L34.9492521,45.2880532 C34.9492521,45.1609264 35.0168944,44.7733946 34.9492521,44.6462678 C34.8139674,44.4514767 34.0001458,44.258736 33.795105,44.1295588 C33.116568,43.8732547 32.5733156,43.680514 32.0300633,43.4221595 M95.2919442,41 C95.4260038,41 96.0313667,41 96.0983965,41.1317771 C96.1654263,41.1966198 96.0983965,41.6567938 96.0983965,41.7216365 L96.0983965,44.54334 L96.0983965,47.4968206 C96.0983965,47.6955321 96.0313667,48.0218373 96.0983965,48.2205489 L96.0983965,48.3502343 C96.3686104,48.6137885 96.4356402,47.7603748 96.50267,47.6955321 C97.1080329,45.2670683 98.2517289,42.4432731 100.80724,41.460174 C101.278543,41.2614625 101.749847,41.1966198 102.22115,41.1317771 C102.623329,41.1317771 103.767025,41 103.970209,41.3283969 C104.037239,41.460174 103.970209,41.7864793 103.970209,41.9182564 L103.970209,43.1649096 L103.970209,48.6137885 C102.35521,48.2853916 100.539121,48.3502343 98.9911514,48.6786312 C98.2517289,48.8104083 97.5793362,49.0070281 96.9069435,49.335425 C96.5696998,49.4672021 96.50267,49.4002677 96.4356402,49.663822 C96.3686104,49.9252845 96.4356402,50.3854585 96.4356402,50.6490127 L96.4356402,52.4855254 L96.4356402,61.8709839 L96.4356402,63.3163487 C96.4356402,63.4481258 96.3686104,63.6447456 96.4356402,63.7744311 C96.5696998,63.9731426 97.0410031,64.102828 97.2420925,64.1697624 C97.5793362,64.3663822 97.981515,64.563002 98.3187587,64.7596218 C98.4528183,64.8265562 98.6560024,64.8913989 98.7230322,65.023176 C98.790062,65.0880187 98.790062,65.8765897 98.7230322,65.9414324 C98.6560024,66.0062751 98.2517289,65.9414324 98.1176693,65.9414324 L96.4356402,65.9414324 L91.5257072,65.9414324 L86.9509231,65.9414324 C86.6136794,65.9414324 86.0083165,66.0732095 85.7401973,65.9414324 L85.5391079,65.9414324 C85.4699834,65.8765897 85.5391079,65.1528614 85.5391079,65.0880187 C85.6731675,64.6947791 86.5466496,64.4312249 86.9509231,64.2346051 C87.2190423,64.102828 87.7573754,63.9062082 87.8935297,63.6447456 C87.9605595,63.5129685 87.8935297,63.1197289 87.8935297,62.9879518 L87.8935297,61.6095214 L87.8935297,44.7420515 C87.8935297,44.6751171 87.9605595,44.3467202 87.8935297,44.2818775 C87.8244052,44.2149431 87.4892562,44.1501004 87.3551966,44.1501004 C86.9509231,44.0183233 86.5466496,43.8886379 86.1444708,43.8217035 C85.7401973,43.6899264 84.7305609,43.6250837 85.0678046,42.9682898 C85.1348344,42.77167 85.4029536,42.8365127 85.6731675,42.77167 C88.6329522,42.2466533 91.5257072,41.7216365 94.4854919,41.1966198 C94.7536111,41.0648427 95.023825,41.0648427 95.2919442,41 M120.948392,41.0097742 L120.948392,35.7444909 L120.948392,34.2299353 C120.948392,34.0327494 121.014446,33.6383776 120.948392,33.4411917 C120.880274,33.3090352 120.616059,33.2440058 120.417898,33.1768787 C119.887404,32.9796928 119.356911,32.7825069 118.760363,32.5853209 C118.361977,32.4531644 118.163816,32.5181938 118.163816,32.0587926 C118.163816,31.6623231 118.097762,31.7944796 118.428031,31.7294502 C119.15875,31.4651372 120.019512,31.4651372 120.748167,31.3350784 C122.936195,30.9386088 125.05817,30.544237 127.244134,30.1498652 C127.708574,30.0827381 128.173014,29.9526793 128.637454,30.0177087 C129.167948,30.0827381 129.234002,29.9526793 129.234002,30.4120805 C129.300055,31.4651372 129.234002,32.5853209 129.234002,33.6383776 L129.234002,46.3421847 L129.234002,59.1781482 L129.234002,62.4694747 C129.234002,62.73169 129.167948,62.73169 129.366109,62.8638465 C129.764495,63.1281596 130.427096,63.2582184 130.823419,63.3903749 C131.089698,63.457502 131.818352,63.5875608 131.95046,63.7847467 C132.016513,63.8518738 132.016513,64.575588 131.95046,64.6406174 C131.884406,64.7077446 131.488084,64.7077446 131.419966,64.7077446 C130.49315,64.8399011 129.630324,64.9699599 128.703508,65.037087 C126.647587,65.2993023 124.59373,65.5636153 122.471755,65.8258306 C122.141487,65.8929577 121.344714,66.0230165 121.212607,65.7608012 C121.080499,65.4964882 121.212607,64.6406174 121.212607,64.3784021 C121.212607,64.1812162 121.344714,63.3253455 121.212607,63.193189 C121.080499,63.0610324 119.621125,64.3784021 119.422964,64.5105586 C118.628256,65.037087 117.76543,65.4314588 116.838614,65.6936741 C115.37924,66.0901436 113.721705,66.0901436 112.264396,65.7608012 C105.900535,64.3133727 104.575333,56.8077219 105.105827,51.3452527 C105.370042,48.448298 106.298922,45.5513433 108.286725,43.44523 C110.142421,41.5363026 112.660718,40.550373 115.247133,40.3510894 C117.234936,40.1539035 119.15875,40.28606 120.948392,41.0097742 M121,62.1576004 L121,46.2222483 L121,43.2432726 C121,42.8530949 120.932973,42.7890975 120.478001,42.5289791 C119.563996,42.0108066 118.390007,41.81675 117.411005,42.2048632 C115.912037,42.7890975 115.19505,44.5376716 114.803043,45.9621298 C114.01903,48.5550567 113.954034,51.3399757 114.01903,54.0608973 C114.086057,56.3937057 114.151053,59.2426222 115.455034,61.3153121 C116.629023,63.129948 119.304012,63.5841231 121,62.1576004 M143.678798,41 C144.022518,41.0648427 144.43242,40.9330656 144.569054,41.2614625 C144.639506,41.460174 144.569054,41.9182564 144.569054,42.1148762 L144.569054,45.792085 L144.569054,56.5559739 L144.569054,61.1493474 L144.569054,62.6595549 C144.569054,62.9231091 144.500737,63.3163487 144.569054,63.5778112 C144.639506,63.8413655 144.912774,63.9062082 145.186042,64.0379853 C145.598079,64.2346051 145.941798,64.4312249 146.3517,64.6278447 C146.490469,64.6947791 146.900371,64.8265562 146.968688,65.023176 C146.968688,65.0880187 147.03914,65.8765897 146.968688,65.9414324 L146.763737,65.9414324 C146.3517,66.0062751 145.80303,65.9414324 145.324811,65.9414324 L134.904336,65.9414324 C134.628933,65.9414324 133.875311,66.0732095 133.668225,65.9414324 C133.531592,65.8765897 133.463275,65.0880187 133.599909,64.9562416 C133.738677,64.7596218 134.216896,64.6278447 134.423982,64.563002 C134.833884,64.3663822 135.245921,64.102828 135.657958,63.9062082 C135.999543,63.7095884 135.931226,63.7744311 135.931226,63.5129685 C136.06786,62.5277778 135.931226,61.4129016 135.931226,60.4277108 L135.931226,55.2423862 L135.931226,45.792085 C135.931226,45.5285308 135.999543,45.0683568 135.931226,44.8068942 C135.862909,44.54334 135.521324,44.54334 135.245921,44.4136546 C134.765567,44.2149431 134.355665,44.0852577 133.875311,43.8886379 C133.738677,43.8217035 133.190007,43.7568608 133.051238,43.560241 C132.982921,43.4933066 132.982921,42.8365127 133.051238,42.77167 C133.12169,42.7068273 133.258324,42.77167 133.326641,42.7068273 C133.875311,42.5102075 134.492299,42.5102075 135.109287,42.3784304 C135.999543,42.2466533 136.823616,42.0500335 137.713872,41.9182564 C139.428201,41.6567938 141.074213,41.3283969 142.788543,41.0648427 C143.130128,41.1317771 143.40553,41.0648427 143.678798,41 M144,35.048234 C143.863604,38.7996455 138.405681,40.4261874 135.912789,37.4860535 C134.767066,36.1106688 134.699917,34.2349631 135.711343,32.7957925 C136.720671,31.3566218 138.676374,30.7307222 140.495682,31.107458 C142.516435,31.4822004 144,33.1087423 144,35.048234 M173.80185,62.7331341 L173.80185,47.1623722 L173.80185,44.189061 C173.80185,44.1252295 173.869523,43.8019539 173.80185,43.7381225 C173.734176,43.6084004 173.326019,43.5425099 173.190672,43.5425099 C172.782516,43.4148469 172.376474,43.2851249 171.968317,43.1554029 C171.765297,43.0915714 171.221793,43.0256808 171.086446,42.8321273 C170.948984,42.7044644 171.016657,42.3811888 171.016657,42.1855763 C171.016657,41.7984692 171.154119,41.8643598 171.560161,41.7984692 C173.055325,41.5410843 174.548374,41.2816402 176.043538,41.0242552 C177.536588,40.7648112 179.031752,40.5074262 180.524801,40.2479821 C180.79761,40.1841506 181.000631,40.1182601 181.271325,40.1182601 C181.408788,40.1182601 182.087639,40.1182601 182.222986,40.1841506 C182.290659,40.2479821 182.222986,40.6350891 182.222986,40.7648112 L182.222986,41.9920228 C182.222986,42.1855763 182.087639,42.7682959 182.222986,42.9618494 C182.358333,43.2212934 182.631142,42.9618494 182.834163,42.7682959 C183.445341,42.3152983 184.056518,41.9281913 184.735369,41.6049157 C187.180078,40.3118136 190.100618,39.7311531 192.885811,40.1182601 C194.787016,40.3777042 196.349854,41.3475308 197.028705,43.0915714 C197.504535,44.318783 197.572209,45.6118851 197.572209,46.9029282 L197.572209,55.1742519 L197.572209,59.8895448 L197.572209,61.6356445 C197.572209,61.8930295 197.504535,62.346027 197.572209,62.603412 C197.639882,62.8628561 197.842903,62.9266876 198.183386,63.0564096 C198.521754,63.2499631 198.929911,63.4435166 199.268279,63.6370701 C199.405741,63.7029607 199.879456,63.8326827 199.949245,64.0262362 C200.016918,64.1538991 200.016918,64.8004502 199.949245,64.8663408 C199.879456,64.9940037 200.016918,64.8663408 199.811783,64.9301722 C199.541088,65.0598943 198.929911,64.9301722 198.589428,64.9301722 L188.878263,64.9301722 C188.470107,64.9301722 186.909384,65.1237258 186.706363,64.8663408 C186.636575,64.8004502 186.636575,64.0900677 186.706363,63.9603456 C186.774037,63.8326827 187.180078,63.7029607 187.317541,63.6370701 C187.723582,63.4435166 188.064065,63.2499631 188.470107,63.0564096 C188.607569,62.9925781 189.013611,62.8628561 189.081284,62.7331341 C189.151073,62.603412 189.081284,62.346027 189.081284,62.216305 L189.081284,60.7955399 L189.081284,56.2717415 L189.081284,47.5494793 C189.081284,46.5158212 189.151073,45.3524411 188.470107,44.448505 C187.928718,43.6722319 186.977058,43.4786784 186.025397,43.4148469 C185.278873,43.4148469 184.600022,43.4786784 183.921171,43.6722319 C183.580688,43.8019539 182.563469,44.061398 182.358333,44.448505 C182.290659,44.578227 182.358333,44.835612 182.358333,44.9653341 L182.358333,46.3222677 L182.358333,50.586622 L182.358333,60.1489888 L182.358333,61.699476 C182.358333,61.8930295 182.290659,62.346027 182.358333,62.5395805 C182.426007,62.7969655 182.834163,62.8628561 183.037184,62.9925781 C183.377667,63.1861316 183.785823,63.3796851 184.124192,63.5732386 C184.259539,63.6370701 184.532348,63.7667921 184.600022,63.8326827 C184.667695,63.8965142 184.667695,64.6707282 184.600022,64.7366187 C184.600022,64.8004502 184.532348,64.7366187 184.464674,64.7366187 C184.191865,64.8663408 183.513014,64.7366187 183.24232,64.7366187 L178.488248,64.7366187 L173.461367,64.7366187 L171.83297,64.7366187 C171.492487,64.7366187 171.424814,64.8004502 171.35714,64.6068967 C171.289466,64.4771747 171.289466,63.8965142 171.35714,63.7667921 C171.424814,63.6370701 171.83297,63.5094072 171.968317,63.4435166 C172.647168,63.3796851 173.190672,63.0564096 173.80185,62.7331341 M159.200161,51.5262511 C159.200161,49.8498698 159.266568,48.1098026 159.133753,46.3697353 C158.93453,44.5002415 158.401194,42.4376352 156.20144,42.0514101 C155.535289,41.9219836 154.335801,41.7288711 153.868872,42.2445227 C153.401943,42.6944338 153.069905,43.3395119 152.669384,43.8551635 C151.536304,45.3384321 150.403223,46.8217008 149.270143,48.3029151 C149.07092,48.5617681 148.871697,49.0774197 148.603991,49.2068462 C148.537583,49.2705322 147.871432,49.2705322 147.871432,49.2068462 C147.805024,49.1411057 147.871432,48.6911946 147.871432,48.5617681 L147.871432,43.3395119 C147.871432,43.1463993 147.805024,42.8238603 147.871432,42.6307478 C148.004247,42.3082087 149.471441,42.1150962 149.803479,41.9856697 C151.669119,41.5357586 153.603241,41.2132195 155.535289,41.083793 C158.268378,40.8906805 161.333506,40.9543665 163.865297,42.1150962 C165.863752,43.0169728 167.131723,44.629668 167.463762,46.6922743 C167.662985,47.7235775 167.596577,48.8843071 167.596577,49.9156103 L167.596577,60.7463478 L167.596577,62.8089541 C167.596577,63.0020667 167.463762,63.5177182 167.596577,63.6471447 C167.662985,63.7108308 167.997098,63.7745168 168.063506,63.7745168 C168.596842,63.9039433 169.063771,64.0333698 169.597107,64.1627963 C169.929145,64.2264824 169.995553,64.2264824 169.995553,64.5490214 C169.995553,64.8715604 170.064036,64.8715604 169.663515,65.0009869 C169.196586,65.1940995 168.729657,65.387212 168.262729,65.5166385 C165.797345,66.2254026 161.93325,66.4185152 160.134018,64.2264824 C159.999128,64.0333698 159.600682,63.1951792 159.399383,63.1314932 C159.133753,63.0657527 158.334786,64.0970559 158.06708,64.2901684 C157.000407,65.1940995 155.601696,65.709751 154.202985,65.9028636 C151.602711,66.2254026 148.803214,65.709751 147.20528,63.5177182 C145.870902,61.6482245 145.605271,58.7474276 146.605536,56.6848212 C148.404768,52.7527212 153.736057,52.3644417 157.600151,51.7193636 C158.06708,51.7193636 158.600417,51.5919915 159.200161,51.5262511 M160,62.1927703 L160,53 C158.098355,53.1247081 156.131545,53.2494162 155.434473,55.2981926 C154.926973,56.666023 154.926973,58.2793106 155.116545,59.7085053 C155.244901,60.7022113 155.497663,61.9453336 156.449473,62.5668947 C157.464474,63.2498202 159.176546,63.125112 160,62.1927703 M74.2369506,51.462565 C74.2369506,49.7861838 74.3035433,48.0461165 74.1703578,46.3060492 C73.9705797,44.4365555 73.4357568,42.3739492 71.2298728,41.9877241 C70.5618645,41.8582976 69.3590333,41.665185 68.8908032,42.1808366 C68.4225731,42.6307478 68.0896095,43.2758258 67.6879721,43.7914774 C66.5517337,45.2747461 65.4154953,46.7580148 64.2792569,48.2392291 C64.0794787,48.498082 63.8797006,49.0137336 63.6112486,49.1431601 C63.5446559,49.2068462 62.8766476,49.2068462 62.8766476,49.1431601 C62.8100549,49.0774197 62.8766476,48.6275085 62.8766476,48.498082 L62.8766476,43.3415663 C62.8766476,43.1463993 62.8100549,42.8238603 62.8766476,42.6307478 C63.0098331,42.3082087 64.4124424,42.1150962 64.8140797,41.9877241 C66.6849192,41.5357586 68.6244323,41.2132195 70.4952717,41.083793 C73.2338976,40.8906805 76.3096492,40.9543665 78.8484969,42.1150962 C80.8525217,43.0190272 82.1219456,44.629668 82.4569903,46.6922743 C82.6567684,47.7235775 82.5901757,48.8843071 82.5901757,49.9156103 L82.5901757,60.7463478 L82.5901757,62.8089541 C82.5901757,63.0020667 82.4569903,63.5177182 82.5901757,63.6471447 C82.6567684,63.7108308 82.9918131,63.7765712 83.0584058,63.7765712 C83.5932287,63.9039433 84.0614588,64.0333698 84.5962816,64.1627963 C84.9292452,64.2264824 84.995838,64.2264824 84.995838,64.5490214 C84.995838,64.8715604 85.0624307,64.8715604 84.6628743,65.0009869 C84.1946442,65.1940995 83.7264141,65.387212 83.258184,65.5166385 C80.785929,66.2254026 76.9110647,66.4185152 75.104737,64.2264824 C74.9715516,64.0333698 74.5719952,63.1951792 74.370136,63.1314932 C74.1037651,63.0678071 73.3004903,64.0991103 73.1007122,64.2922228 C72.0310665,65.1940995 70.6284572,65.709751 69.2258479,65.9028636 C66.6183264,66.2254026 63.8110268,65.709751 62.2086393,63.5177182 C60.8705417,61.6482245 60.6041708,58.7474276 61.6072238,56.6848212 C63.4114704,52.7527212 68.7576178,52.3664961 72.5658893,51.721418 C73.1007122,51.6556776 73.635535,51.5283055 74.2369506,51.462565 M74,62.1927703 L74,53 C72.0983552,53.1247081 70.131545,53.2494162 69.4344727,55.2981926 C68.9269725,56.666023 68.9269725,58.2793106 69.1165446,59.7085053 C69.2449007,60.7022113 69.4976634,61.9453336 70.4494732,62.5668947 C71.4624989,63.2498202 73.1765463,63.125112 74,62.1927703"></path>
</svg>
