<svg version="1.1" id="Layer_1" xmlns="http://www.w3.org/2000/svg" xmlns:xlink="http://www.w3.org/1999/xlink" x="0px" y="0px"
	 width="100%" viewBox="0 0 788 262" enable-background="new 0 0 788 262" xml:space="preserve">
<path fill="transparent" opacity="1.000000" stroke="tansparent" 
	d="
M531.000000,263.000000 
	C354.042023,263.000000 177.584030,263.000000 1.063027,263.000000 
	C1.063027,175.729507 1.063027,88.458969 1.063027,1.094213 
	C263.666656,1.094213 526.333313,1.094213 788.969238,1.094213 
	C788.969238,88.415916 788.969238,175.707962 788.969238,263.000000 
	C703.125671,263.000000 617.312866,263.000000 531.000000,263.000000 
M247.190308,208.290680 
	C259.700989,222.973480 276.398590,224.951721 295.167877,224.518204 
	C276.014526,193.383560 257.482178,163.258423 238.788025,132.870239 
	C249.169418,122.119881 276.005737,86.654869 278.008423,80.472565 
	C267.553070,80.472565 257.266235,80.580429 246.983017,80.433662 
	C240.409485,80.339844 235.592896,82.841370 231.974136,88.432220 
	C225.282761,98.770149 218.279984,108.906868 211.383240,119.111404 
	C207.454056,124.925102 204.311676,126.040947 196.410767,124.241371 
	C196.410767,91.961151 196.410767,59.561413 196.410767,27.003763 
	C183.873306,27.003763 171.839294,27.003763 159.971069,27.003763 
	C159.971069,85.744026 159.971069,144.127380 159.971069,202.952164 
	C170.657852,202.952164 180.960022,202.744232 191.246811,203.051453 
	C195.542755,203.179749 196.534088,201.702988 196.473541,197.657455 
	C196.254135,182.998596 196.350342,168.334183 196.444611,153.672638 
	C196.454086,152.199478 196.800720,150.009995 197.776001,149.391998 
	C201.122116,147.271744 209.314865,149.682907 211.597122,153.224960 
	C215.112106,158.680222 218.403305,164.280060 221.936981,169.722794 
	C230.175598,182.412369 238.502106,195.044876 247.190308,208.290680 
M290.513184,101.805511 
	C289.561951,133.312576 311.246643,158.999237 342.615173,163.523071 
	C383.426941,169.408783 418.489105,131.523651 409.456207,91.300499 
	C402.708740,61.254261 375.919098,41.517780 345.161438,43.933174 
	C315.454956,46.266022 292.413818,70.311752 290.513184,101.805511 
M479.871521,120.488243 
	C436.050323,109.722267 396.793793,148.755112 407.040283,192.904495 
	C413.778198,221.936264 441.519653,242.026825 470.752045,239.044968 
	C501.582367,235.900116 524.907837,211.081894 525.749207,180.528061 
	C526.514221,152.747269 509.003326,129.476074 479.871521,120.488243 
M734.496826,148.657211 
	C739.491760,148.627487 744.487122,148.542374 749.481445,148.584488 
	C753.955994,148.622238 756.522888,146.197281 756.863464,142.064148 
	C758.500854,122.197258 754.519531,104.140862 738.367371,90.773399 
	C719.278809,74.975754 685.811707,75.440231 665.087708,90.702515 
	C635.350647,112.602470 636.726685,158.829666 654.776550,182.029770 
	C669.253601,200.637512 689.140076,206.136475 711.596130,204.469818 
	C726.322571,203.376846 740.056396,199.093964 751.307068,188.995880 
	C757.620544,183.329132 757.558899,184.631805 751.970032,177.833496 
	C750.596558,176.162827 749.070618,174.591843 747.885681,172.796280 
	C742.961792,165.335434 737.486084,166.704819 731.360168,169.438049 
	C727.267944,171.263855 723.361938,173.577484 719.159241,175.073120 
	C698.388916,182.464661 679.126038,169.784607 679.697754,148.656982 
	C697.616394,148.656982 715.557129,148.656982 734.496826,148.657211 
M586.800171,131.179077 
	C583.461548,141.802658 580.122986,152.426254 576.645874,163.490662 
	C571.292480,146.760788 566.123962,130.654587 560.986084,114.538620 
	C556.533203,100.571007 552.113770,86.570381 542.063293,75.332802 
	C532.235352,64.344040 519.993103,58.940182 504.694214,59.302845 
	C505.193481,61.017639 505.431183,62.130863 505.835419,63.179897 
	C523.279785,108.446968 540.710876,153.719238 558.323608,198.920761 
	C558.887573,200.367981 561.301575,201.935181 562.906982,201.994598 
	C571.222290,202.302551 579.563049,201.923996 587.878174,202.234238 
	C591.658386,202.375259 593.388916,201.150345 594.737915,197.606964 
	C606.324707,167.173080 618.120850,136.818909 629.845459,106.437462 
	C633.106750,97.986771 636.338318,89.524582 639.779175,80.557854 
	C628.588318,80.557854 618.144409,80.062538 607.809937,80.906502 
	C605.230103,81.117180 601.883789,85.244148 600.805176,88.256874 
	C595.823120,102.172173 591.517212,116.329529 586.800171,131.179077 
M59.771080,198.766861 
	C66.655937,200.619522 73.440353,203.348114 80.445541,204.151443 
	C97.621223,206.121109 114.187202,203.985931 127.839027,192.062592 
	C147.744339,174.677551 143.111633,144.394913 119.048782,133.802460 
	C114.040489,131.597824 108.742065,130.061646 103.638008,128.062561 
	C98.245331,125.950417 92.617470,124.162056 87.716972,121.199165 
	C85.606438,119.923111 83.803085,115.858849 84.167168,113.403328 
	C84.540520,110.885338 87.318802,107.925690 89.801086,106.730003 
	C92.612869,105.375587 96.422821,104.962631 99.519058,105.568878 
	C105.646309,106.768631 111.656151,108.734299 117.576302,110.782822 
	C124.775856,113.274063 127.869713,112.547699 132.059753,106.420021 
	C133.937851,103.673409 135.469772,100.673164 137.500000,98.052338 
	C139.478500,95.498276 138.506927,94.123871 136.419220,92.331573 
	C117.998322,76.517273 83.882553,74.482178 63.791943,88.128777 
	C43.488365,101.920021 42.297371,135.520676 65.638641,147.959335 
	C71.753571,151.218033 78.535561,153.224197 85.008827,155.811523 
	C90.391602,157.963013 96.121552,159.526001 101.064438,162.428223 
	C107.480705,166.195557 106.466499,175.108826 99.533180,177.869324 
	C96.683250,179.004028 93.398544,179.260269 90.281662,179.469009 
	C82.439087,179.994232 75.809990,176.495087 69.154327,172.910385 
	C62.862942,169.521881 57.349335,170.251160 53.865639,174.975037 
	C50.533768,179.493057 47.723183,184.395523 44.079304,190.069824 
	C49.366470,193.022247 54.222397,195.733856 59.771080,198.766861 
z"/>
<path fill="#F4F5F5" opacity="1.000000" stroke="none" 
	d="
M246.991669,207.995575 
	C238.502106,195.044876 230.175598,182.412369 221.936981,169.722794 
	C218.403305,164.280060 215.112106,158.680222 211.597122,153.224960 
	C209.314865,149.682907 201.122116,147.271744 197.776001,149.391998 
	C196.800720,150.009995 196.454086,152.199478 196.444611,153.672638 
	C196.350342,168.334183 196.254135,182.998596 196.473541,197.657455 
	C196.534088,201.702988 195.542755,203.179749 191.246811,203.051453 
	C180.960022,202.744232 170.657852,202.952164 159.971069,202.952164 
	C159.971069,144.127380 159.971069,85.744026 159.971069,27.003763 
	C171.839294,27.003763 183.873306,27.003763 196.410767,27.003763 
	C196.410767,59.561413 196.410767,91.961151 196.410767,124.241371 
	C204.311676,126.040947 207.454056,124.925102 211.383240,119.111404 
	C218.279984,108.906868 225.282761,98.770149 231.974136,88.432220 
	C235.592896,82.841370 240.409485,80.339844 246.983017,80.433662 
	C257.266235,80.580429 267.553070,80.472565 278.008423,80.472565 
	C276.005737,86.654869 249.169418,122.119881 238.788025,132.870239 
	C257.482178,163.258423 276.014526,193.383560 295.167877,224.518204 
	C276.398590,224.951721 259.700989,222.973480 246.991669,207.995575 
z"/>
<path fill="#F5F6F6" opacity="1.000000" stroke="none" 
	d="
M290.530762,101.366447 
	C292.413818,70.311752 315.454956,46.266022 345.161438,43.933174 
	C375.919098,41.517780 402.708740,61.254261 409.456207,91.300499 
	C418.489105,131.523651 383.426941,169.408783 342.615173,163.523071 
	C311.246643,158.999237 289.561951,133.312576 290.530762,101.366447 
z"/>
<path fill="#F5F6F6" opacity="1.000000" stroke="none" 
	d="
M480.275909,120.560791 
	C509.003326,129.476074 526.514221,152.747269 525.749207,180.528061 
	C524.907837,211.081894 501.582367,235.900116 470.752045,239.044968 
	C441.519653,242.026825 413.778198,221.936264 407.040283,192.904495 
	C396.793793,148.755112 436.050323,109.722267 480.275909,120.560791 
z"/>
<path fill="#F1F3F3" opacity="1.000000" stroke="none" 
	d="
M733.997375,148.657104 
	C715.557129,148.656982 697.616394,148.656982 679.697754,148.656982 
	C679.126038,169.784607 698.388916,182.464661 719.159241,175.073120 
	C723.361938,173.577484 727.267944,171.263855 731.360168,169.438049 
	C737.486084,166.704819 742.961792,165.335434 747.885681,172.796280 
	C749.070618,174.591843 750.596558,176.162827 751.970032,177.833496 
	C757.558899,184.631805 757.620544,183.329132 751.307068,188.995880 
	C740.056396,199.093964 726.322571,203.376846 711.596130,204.469818 
	C689.140076,206.136475 669.253601,200.637512 654.776550,182.029770 
	C636.726685,158.829666 635.350647,112.602470 665.087708,90.702515 
	C685.811707,75.440231 719.278809,74.975754 738.367371,90.773399 
	C754.519531,104.140862 758.500854,122.197258 756.863464,142.064148 
	C756.522888,146.197281 753.955994,148.622238 749.481445,148.584488 
	C744.487122,148.542374 739.491760,148.627487 733.997375,148.657104 
M708.702393,106.476486 
	C692.251038,104.299988 681.200806,112.659027 680.550110,127.698448 
	C695.063965,127.698448 709.576416,127.698448 724.091797,127.698448 
	C723.775818,116.004227 719.121277,109.440277 708.702393,106.476486 
z"/>
<path fill="#F2F4F4" opacity="1.000000" stroke="none" 
	d="
M586.884583,130.789612 
	C591.517212,116.329529 595.823120,102.172173 600.805176,88.256874 
	C601.883789,85.244148 605.230103,81.117180 607.809937,80.906502 
	C618.144409,80.062538 628.588318,80.557854 639.779175,80.557854 
	C636.338318,89.524582 633.106750,97.986771 629.845459,106.437462 
	C618.120850,136.818909 606.324707,167.173080 594.737915,197.606964 
	C593.388916,201.150345 591.658386,202.375259 587.878174,202.234238 
	C579.563049,201.923996 571.222290,202.302551 562.906982,201.994598 
	C561.301575,201.935181 558.887573,200.367981 558.323608,198.920761 
	C540.710876,153.719238 523.279785,108.446968 505.835419,63.179897 
	C505.431183,62.130863 505.193481,61.017639 504.694214,59.302845 
	C519.993103,58.940182 532.235352,64.344040 542.063293,75.332802 
	C552.113770,86.570381 556.533203,100.571007 560.986084,114.538620 
	C566.123962,130.654587 571.292480,146.760788 576.645874,163.490662 
	C580.122986,152.426254 583.461548,141.802658 586.884583,130.789612 
z"/>
<path fill="#F1F3F3" opacity="1.000000" stroke="none" 
	d="
M59.424702,198.606171 
	C54.222397,195.733856 49.366470,193.022247 44.079304,190.069824 
	C47.723183,184.395523 50.533768,179.493057 53.865639,174.975037 
	C57.349335,170.251160 62.862942,169.521881 69.154327,172.910385 
	C75.809990,176.495087 82.439087,179.994232 90.281662,179.469009 
	C93.398544,179.260269 96.683250,179.004028 99.533180,177.869324 
	C106.466499,175.108826 107.480705,166.195557 101.064438,162.428223 
	C96.121552,159.526001 90.391602,157.963013 85.008827,155.811523 
	C78.535561,153.224197 71.753571,151.218033 65.638641,147.959335 
	C42.297371,135.520676 43.488365,101.920021 63.791943,88.128777 
	C83.882553,74.482178 117.998322,76.517273 136.419220,92.331573 
	C138.506927,94.123871 139.478500,95.498276 137.500000,98.052338 
	C135.469772,100.673164 133.937851,103.673409 132.059753,106.420021 
	C127.869713,112.547699 124.775856,113.274063 117.576302,110.782822 
	C111.656151,108.734299 105.646309,106.768631 99.519058,105.568878 
	C96.422821,104.962631 92.612869,105.375587 89.801086,106.730003 
	C87.318802,107.925690 84.540520,110.885338 84.167168,113.403328 
	C83.803085,115.858849 85.606438,119.923111 87.716972,121.199165 
	C92.617470,124.162056 98.245331,125.950417 103.638008,128.062561 
	C108.742065,130.061646 114.040489,131.597824 119.048782,133.802460 
	C143.111633,144.394913 147.744339,174.677551 127.839027,192.062592 
	C114.187202,203.985931 97.621223,206.121109 80.445541,204.151443 
	C73.440353,203.348114 66.655937,200.619522 59.424702,198.606171 
z"/>
<path fill="transparent" opacity="1.000000" stroke="transparent" 
	d="
M709.104858,106.595947 
	C719.121277,109.440277 723.775818,116.004227 724.091797,127.698448 
	C709.576416,127.698448 695.063965,127.698448 680.550110,127.698448 
	C681.200806,112.659027 692.251038,104.299988 709.104858,106.595947 
z"/>
</svg>
