<svg viewBox="0 0 657 197" version="1.1" xmlns="http://www.w3.org/2000/svg" xmlns:xlink="http://www.w3.org/1999/xlink">
    <g stroke="none" stroke-width="1" fill-rule="evenodd">
        <path fill="#00524F" d="M606.424328,73.1537003 C600.067236,73.1537003 595.108526,74.9746095 591.541045,78.611014 C587.971775,82.2510278 585.613124,87.4935862 584.472245,94.3368844 L625.914044,94.3368844 C625.914044,91.6731955 625.576072,89.078084 624.896551,86.5569639 C624.218819,84.0358437 623.110128,81.7818143 621.579419,79.8020944 C620.039769,77.8223744 618.026243,76.2180252 615.528112,74.9926562 C613.028192,73.7708965 609.99181,73.1537003 606.424328,73.1537003 M605.784148,50.0304989 C613.135485,50.0304989 619.864525,51.1818766 625.96769,53.4882413 C632.072644,55.7946061 637.319256,59.1422638 641.707527,63.5384332 C646.097586,67.9309933 649.525587,73.3197296 651.987954,79.6938143 C654.448533,86.067899 655.682399,93.291982 655.682399,101.362454 C655.682399,103.883574 655.573318,105.93909 655.358732,107.519979 C655.144147,109.106281 654.754317,110.367743 654.183877,111.304366 C653.613438,112.239183 652.842719,112.890668 651.882449,113.249797 C650.915027,113.608926 649.686526,113.789393 648.188005,113.789393 L584.150367,113.789393 C585.225082,123.155616 588.041515,129.944774 592.608607,134.160476 C597.179275,138.376179 603.069643,140.482226 610.279712,140.482226 C614.135095,140.482226 617.455804,140.014817 620.238261,139.078195 C623.020718,138.141572 625.502755,137.098475 627.680797,135.941683 C629.85705,134.79211 631.858058,133.747208 633.678458,132.810585 C635.500645,131.873963 637.40509,131.402945 639.406099,131.402945 C642.049075,131.402945 644.044719,132.377465 645.401971,134.322896 L655.040431,146.316715 C651.614218,150.279764 647.917985,153.504705 643.958885,155.987927 C639.99442,158.474758 635.924451,160.420189 631.750766,161.826025 C627.571716,163.230056 623.39803,164.202772 619.220768,164.742368 C615.045295,165.283768 611.066525,165.552663 607.282669,165.552663 C599.502162,165.552663 592.202683,164.273154 585.382445,161.715941 C578.563995,159.160532 572.603886,155.359903 567.500331,150.315858 C562.396775,145.275422 558.364359,139.004203 555.401292,131.511225 C552.438226,124.020051 550.955799,115.299899 550.955799,105.359792 C550.955799,97.8668135 552.221853,90.7708619 554.755748,84.0719371 C557.289644,77.3712076 560.93223,71.4988204 565.68172,66.4547755 C570.425845,61.4143398 576.176732,57.4133926 582.921866,54.4591523 C589.668787,51.5085213 597.286568,50.0304989 605.784148,50.0304989"></path>
        <path fill="#00524F" d="M486.800295,119.171478 C487.920771,123.048804 488.874984,126.926129 489.670161,130.801656 C490.46353,126.926129 491.435815,123.048804 492.590628,119.171478 C493.745442,115.294153 494.972545,111.310723 496.270129,107.21939 L512.506195,57.1396702 C513.079084,55.4905482 514.163416,54.1075876 515.751963,52.9943852 C517.335088,51.8847796 519.214597,51.3254808 521.377839,51.3254808 L548,51.3254808 L504.496595,163 L473.97626,163 L423,32 C447.547472,32 462.972097,46.4482517 472.022655,73.9042461 C479.206356,95.6935189 486.800295,119.171478 486.800295,119.171478"></path>
        <path fill="#00524F" d="M418.622826,94.897357 C393.020795,78.192867 358.788663,85.505267 342.162657,111.225367 C325.536651,136.941847 332.813682,171.331847 358.415713,188.034527 C384.015943,204.739017 418.248075,197.426617 434.874081,171.710137 C451.500087,145.990037 444.223056,111.600037 418.622826,94.897357 M329.006708,102.640537 C312.380702,128.358827 278.148571,135.669417 252.546539,118.966737 C226.94631,102.264057 219.669279,67.874057 236.295285,42.155767 C252.921291,16.435667 287.153423,9.125077 312.753653,25.829567 C338.355684,42.530437 345.632714,76.920437 329.006708,102.640537"></path>
        <path fill="#00524F" d="M230.703441,183.923046 C198.30124,183.861614 190.350909,176.292753 174.803916,150.668121 C163.51358,132.059457 154.982221,118.41238 154.982221,118.41238 C153.973543,116.607345 152.928777,115.436512 151.849726,114.894459 C150.768871,114.352406 149.150294,114.083187 146.986779,114.083187 L140.505257,114.083187 L140.505257,163.744236 L107.007766,163.744236 L107.007766,1.77350901 L140.505257,1.77350901 L140.505257,92.552859 L145.476469,92.552859 C147.564198,92.552859 149.166534,92.2637643 150.283478,91.6837681 C151.398618,91.1109992 152.461429,90.0630309 153.468302,88.5488974 L174.650539,56.9544602 C175.870336,55.0789583 177.331926,53.7093722 179.026289,52.8438949 C180.717042,51.9784176 182.860708,51.5447756 185.453678,51.5447756 L216.141668,51.5447756 L187.18413,91.4705607 C185.814565,93.3460626 184.320495,95.0047435 182.700114,96.4466033 C181.077929,97.89027 179.329433,99.1893893 177.456432,100.340348 C180.698998,102.797653 183.512109,106.040934 185.884938,110.079225 L230.703441,183.923046 Z"></path>
        <path fill="#00524F" d="M79.7201306,76.2889487 C78.8598857,77.6604958 77.9475592,78.6332114 76.9813551,79.2089003 C76.0097633,79.7845891 74.7741714,80.0715312 73.2691918,80.0715312 C71.6905796,80.0715312 70.1137633,79.7304491 68.535151,79.0428709 C66.9583347,78.3607067 65.2558041,77.6225978 63.431151,76.8303488 C61.6011102,76.0362952 59.5411918,75.299991 57.2442122,74.6142175 C54.9490286,73.9302486 52.3341714,73.5873618 49.3942531,73.5873618 C45.1612735,73.5873618 41.9178449,74.3976574 39.6621714,76.0200532 C37.404702,77.6388398 36.2732735,79.8928691 36.2732735,82.7749227 C36.2732735,84.8647274 37.0096,86.5935986 38.4768653,87.9615364 C39.9477224,89.3312788 41.8998857,90.5367965 44.3405388,91.5816989 C46.7758041,92.6266012 49.5361306,93.6191682 52.6197224,94.5539858 C55.7015184,95.4906081 58.8587429,96.5355105 62.0842122,97.6868882 C65.3114776,98.8400705 68.4633143,100.191766 71.548702,101.740171 C74.630498,103.29038 77.3890286,105.197913 79.8296816,107.468185 C82.2649469,109.734847 84.220702,112.492378 85.6897633,115.731756 C87.1588245,118.976548 87.895151,122.865606 87.895151,127.404344 C87.895151,132.953695 86.8912327,138.068122 84.8833959,142.751234 C82.8755592,147.43615 79.8835592,151.467777 75.9020082,154.855137 C71.9258449,158.240693 67.0140082,160.871898 61.1700898,162.743338 C55.3261714,164.614778 48.604049,165.553204 41.0037224,165.553204 C37.2035592,165.553204 33.4051918,165.192271 29.6068245,164.472209 C25.8048653,163.753951 22.1322122,162.781236 18.5834776,161.554062 C15.0329469,160.328693 11.7536,158.872326 8.7418449,157.179548 C5.73188571,155.484966 3.1493551,153.665861 0.999640816,151.718625 L8.7418449,139.401771 C9.67213061,137.959842 10.7856,136.824707 12.0750694,135.996364 C13.3663347,135.169827 15.0509061,134.752949 17.1305796,134.752949 C19.0665796,134.752949 20.8032327,135.186069 22.3477224,136.050504 C23.8868245,136.916745 25.5570286,137.851562 27.3475592,138.862176 C29.1398857,139.870985 31.2357224,140.807607 33.6386612,141.670238 C36.0416,142.536478 39.0695184,142.967794 42.7242122,142.967794 C45.3085388,142.967794 47.4959673,142.697094 49.286498,142.157498 C51.0788245,141.617903 52.5137633,140.877989 53.5877224,139.941367 C54.6616816,139.004745 55.4500898,137.959842 55.9547429,136.80666 C56.4558041,135.655282 56.7072327,134.466007 56.7072327,133.240638 C56.7072327,131.008264 55.9547429,129.171113 54.4497633,127.727379 C52.9411918,126.289059 50.9710694,125.045644 48.5340082,124.000741 C46.095151,122.955839 43.3168653,121.984928 40.1973551,121.084399 C37.0796408,120.182065 33.908049,119.157014 30.6807837,118.003832 C27.4535184,116.85065 24.2837224,115.464665 21.1642122,113.844074 C18.0429061,112.221678 15.2664163,110.167967 12.8293551,107.68294 C10.390498,105.197913 8.42037551,102.155244 6.91539592,98.5513238 C5.40682449,94.949208 4.65613061,90.5927412 4.65613061,85.4747049 C4.65613061,80.7212114 5.57204898,76.20052 7.39670204,71.9126306 C9.22674286,67.6265459 11.9691102,63.86201 15.6256,60.619023 C19.2820898,57.3778406 23.8688653,54.8025805 29.3913143,52.8914379 C34.9101714,50.9839046 41.3629061,50.0292356 48.7495184,50.0292356 C52.7651918,50.0292356 56.655151,50.3883644 60.4176,51.1102313 C64.180049,51.8302935 67.7108245,52.8391025 71.0117224,54.1348536 C74.3054367,55.4306047 77.3189878,56.9645718 80.0451918,58.7277317 C82.7678041,60.4963056 85.1689469,62.4182762 87.2486204,64.5098856 L79.7201306,76.2889487 Z"></path>
    </g>
</svg>
